<svg width="238" height="46" viewBox="0 0 238 46" fill="none" xmlns="http://www.w3.org/2000/svg">
<mask id="mask0" mask-type="alpha" maskUnits="userSpaceOnUse" x="18" y="13" width="20" height="20">
<path fill-rule="evenodd" clip-rule="evenodd" d="M34.9077 13.5216H20.1634C19.005 13.5216 18.0571 14.4694 18.0571 15.6279V30.3721C18.0571 31.5306 19.005 32.4784 20.1634 32.4784H34.9077C36.0661 32.4784 37.014 31.5306 37.014 30.3721V15.6279C37.014 14.4694 36.0661 13.5216 34.9077 13.5216ZM34.9077 15.6279V30.3721H20.1634V15.6279H34.9077ZM26.6298 26.9283L29.7893 22.8526L33.8545 28.2658H21.2166L24.3761 24.2006L26.6298 26.9283Z" fill="white"/>
</mask>
<g mask="url(#mask0)">
<rect x="16" y="11" width="24" height="24" fill="#66788A"/>
</g>
<path d="M50.8369 28H49.1143V18.0469H50.8369V28ZM55.7908 26.8105C56.2055 26.8105 56.5496 26.6898 56.823 26.4482C57.0965 26.2067 57.2423 25.9082 57.2605 25.5527H58.826C58.8077 26.013 58.6642 26.4437 58.3953 26.8447C58.1264 27.2412 57.7618 27.5557 57.3016 27.7881C56.8413 28.0205 56.3445 28.1367 55.8113 28.1367C54.7768 28.1367 53.9565 27.8018 53.3504 27.1318C52.7443 26.4619 52.4412 25.5368 52.4412 24.3564V24.1855C52.4412 23.0599 52.742 22.1598 53.3436 21.4854C53.9451 20.8063 54.7654 20.4668 55.8045 20.4668C56.684 20.4668 57.3995 20.7243 57.951 21.2393C58.507 21.7497 58.7986 22.4219 58.826 23.2559H57.2605C57.2423 22.832 57.0965 22.4834 56.823 22.21C56.5542 21.9365 56.2101 21.7998 55.7908 21.7998C55.2531 21.7998 54.8383 21.9958 54.5467 22.3877C54.255 22.7751 54.1069 23.3652 54.1023 24.1582V24.4248C54.1023 25.2269 54.2459 25.8262 54.533 26.2227C54.8247 26.6146 55.2439 26.8105 55.7908 26.8105ZM59.7193 24.2334C59.7193 23.5088 59.8629 22.8571 60.15 22.2783C60.4371 21.695 60.8404 21.2484 61.36 20.9385C61.8795 20.624 62.4765 20.4668 63.151 20.4668C64.149 20.4668 64.9579 20.7881 65.5777 21.4307C66.2021 22.0732 66.5393 22.9255 66.5895 23.9873L66.5963 24.377C66.5963 25.1061 66.455 25.7578 66.1725 26.332C65.8945 26.9062 65.4934 27.3506 64.9693 27.665C64.4498 27.9795 63.8482 28.1367 63.1646 28.1367C62.121 28.1367 61.2848 27.7904 60.6559 27.0977C60.0315 26.4004 59.7193 25.473 59.7193 24.3154V24.2334ZM61.3805 24.377C61.3805 25.138 61.5377 25.735 61.8521 26.168C62.1666 26.5964 62.6041 26.8105 63.1646 26.8105C63.7252 26.8105 64.1604 26.5918 64.4703 26.1543C64.7848 25.7168 64.942 25.0765 64.942 24.2334C64.942 23.486 64.7802 22.8936 64.4566 22.4561C64.1376 22.0186 63.7024 21.7998 63.151 21.7998C62.6087 21.7998 62.178 22.0163 61.859 22.4492C61.54 22.8776 61.3805 23.5202 61.3805 24.377ZM69.4926 20.6035L69.5404 21.458C70.0873 20.7972 70.8051 20.4668 71.6938 20.4668C73.2341 20.4668 74.018 21.3486 74.0453 23.1123V28H72.3842V23.208C72.3842 22.7386 72.2816 22.3923 72.0766 22.1689C71.876 21.9411 71.5456 21.8271 71.0854 21.8271C70.4154 21.8271 69.9164 22.1302 69.5883 22.7363V28H67.9271V20.6035H69.4926ZM79.84 25.9902C79.84 25.694 79.717 25.4684 79.4709 25.3135C79.2294 25.1585 78.826 25.0218 78.2609 24.9033C77.6958 24.7848 77.2242 24.6344 76.8459 24.4521C76.0165 24.0511 75.6018 23.4701 75.6018 22.709C75.6018 22.071 75.8706 21.5378 76.4084 21.1094C76.9462 20.681 77.6298 20.4668 78.4592 20.4668C79.3433 20.4668 80.0565 20.6855 80.5988 21.123C81.1457 21.5605 81.4191 22.1279 81.4191 22.8252H79.758C79.758 22.5062 79.6395 22.2419 79.4025 22.0322C79.1656 21.818 78.8511 21.7109 78.4592 21.7109C78.0946 21.7109 77.7961 21.7952 77.5637 21.9639C77.3358 22.1325 77.2219 22.3581 77.2219 22.6406C77.2219 22.8958 77.329 23.0941 77.5432 23.2354C77.7574 23.3766 78.1903 23.5202 78.842 23.666C79.4937 23.8073 80.0041 23.9782 80.3732 24.1787C80.7469 24.3747 81.0227 24.6117 81.2004 24.8896C81.3827 25.1676 81.4738 25.5049 81.4738 25.9014C81.4738 26.5667 81.1981 27.1068 80.6467 27.5215C80.0952 27.9316 79.3729 28.1367 78.4797 28.1367C77.8736 28.1367 77.3335 28.0273 76.8596 27.8086C76.3856 27.5898 76.0165 27.2891 75.7521 26.9062C75.4878 26.5234 75.3557 26.111 75.3557 25.6689H76.9689C76.9917 26.0609 77.1398 26.3639 77.4133 26.5781C77.6867 26.7878 78.049 26.8926 78.5002 26.8926C78.9377 26.8926 79.2704 26.8105 79.4982 26.6465C79.7261 26.4779 79.84 26.2591 79.84 25.9902ZM86.0496 25.3135C86.0496 24.8532 86.1749 24.4316 86.4256 24.0488C86.6762 23.6615 87.1707 23.2035 87.909 22.6748C87.5216 22.1872 87.2505 21.7725 87.0955 21.4307C86.9451 21.0889 86.8699 20.7585 86.8699 20.4395C86.8699 19.6602 87.1069 19.0449 87.5809 18.5938C88.0548 18.138 88.6928 17.9102 89.4949 17.9102C90.2195 17.9102 90.812 18.1243 91.2723 18.5527C91.7371 18.9766 91.9695 19.5029 91.9695 20.1318C91.9695 20.5465 91.8647 20.9294 91.6551 21.2803C91.4454 21.6266 91.1014 21.973 90.6229 22.3193L89.9461 22.8115L91.867 25.0811C92.145 24.5342 92.284 23.9258 92.284 23.2559H93.7264C93.7264 24.4818 93.4393 25.4867 92.865 26.2705L94.3279 28H92.4002L91.8396 27.3369C91.1287 27.8701 90.2811 28.1367 89.2967 28.1367C88.3123 28.1367 87.5239 27.877 86.9314 27.3574C86.3436 26.8333 86.0496 26.152 86.0496 25.3135ZM89.3445 26.8105C89.9051 26.8105 90.4292 26.6237 90.9168 26.25L88.743 23.6865L88.5311 23.8369C87.9842 24.2516 87.7107 24.7256 87.7107 25.2588C87.7107 25.7191 87.8589 26.0928 88.1551 26.3799C88.4513 26.667 88.8478 26.8105 89.3445 26.8105ZM88.4285 20.3984C88.4285 20.7812 88.6632 21.262 89.1326 21.8408L89.8914 21.3213L90.1033 21.1504C90.3859 20.8997 90.5271 20.5785 90.5271 20.1865C90.5271 19.9268 90.4292 19.7057 90.2332 19.5234C90.0372 19.3366 89.7889 19.2432 89.4881 19.2432C89.1645 19.2432 88.907 19.3525 88.7156 19.5713C88.5242 19.79 88.4285 20.0658 88.4285 20.3984ZM100.64 28H98.9174V18.0469H100.64V28ZM104.117 20.6035L104.165 21.376C104.685 20.7699 105.396 20.4668 106.298 20.4668C107.287 20.4668 107.964 20.8451 108.328 21.6016C108.866 20.8451 109.623 20.4668 110.598 20.4668C111.414 20.4668 112.02 20.6924 112.416 21.1436C112.817 21.5947 113.022 22.2601 113.031 23.1396V28H111.37V23.1875C111.37 22.7181 111.268 22.374 111.063 22.1553C110.858 21.9365 110.518 21.8271 110.044 21.8271C109.666 21.8271 109.356 21.9297 109.114 22.1348C108.877 22.3353 108.711 22.5996 108.615 22.9277L108.622 28H106.961V23.1328C106.938 22.2624 106.494 21.8271 105.628 21.8271C104.963 21.8271 104.491 22.0983 104.213 22.6406V28H102.552V20.6035H104.117ZM119.106 28C119.034 27.8587 118.97 27.6286 118.915 27.3096C118.386 27.861 117.739 28.1367 116.974 28.1367C116.231 28.1367 115.625 27.9248 115.155 27.501C114.686 27.0771 114.451 26.5531 114.451 25.9287C114.451 25.1403 114.743 24.5365 115.326 24.1172C115.914 23.6934 116.753 23.4814 117.842 23.4814H118.86V22.9961C118.86 22.6133 118.753 22.3079 118.539 22.0801C118.325 21.8477 117.999 21.7314 117.562 21.7314C117.183 21.7314 116.873 21.8271 116.632 22.0186C116.39 22.2054 116.27 22.4447 116.27 22.7363H114.608C114.608 22.3307 114.743 21.9525 115.012 21.6016C115.281 21.2461 115.645 20.9681 116.105 20.7676C116.57 20.5671 117.088 20.4668 117.657 20.4668C118.523 20.4668 119.214 20.6855 119.729 21.123C120.243 21.556 120.508 22.1667 120.521 22.9551V26.291C120.521 26.9564 120.615 27.4873 120.802 27.8838V28H119.106ZM117.281 26.8037C117.609 26.8037 117.917 26.724 118.204 26.5645C118.496 26.4049 118.715 26.1908 118.86 25.9219V24.5273H117.965C117.35 24.5273 116.887 24.6344 116.577 24.8486C116.267 25.0628 116.112 25.3659 116.112 25.7578C116.112 26.0768 116.217 26.332 116.427 26.5234C116.641 26.7103 116.926 26.8037 117.281 26.8037ZM121.921 24.2471C121.921 23.0986 122.19 22.1826 122.727 21.499C123.27 20.8109 123.987 20.4668 124.881 20.4668C125.724 20.4668 126.387 20.7607 126.87 21.3486L126.945 20.6035H128.442V27.7744C128.442 28.7451 128.139 29.5107 127.533 30.0713C126.931 30.6318 126.118 30.9121 125.093 30.9121C124.55 30.9121 124.019 30.7982 123.5 30.5703C122.985 30.347 122.593 30.0531 122.324 29.6885L123.11 28.6904C123.621 29.2965 124.249 29.5996 124.997 29.5996C125.548 29.5996 125.984 29.4492 126.303 29.1484C126.622 28.8522 126.781 28.4147 126.781 27.8359V27.3369C126.303 27.8701 125.665 28.1367 124.867 28.1367C124.001 28.1367 123.292 27.7926 122.741 27.1045C122.194 26.4163 121.921 25.4639 121.921 24.2471ZM123.575 24.3906C123.575 25.1335 123.725 25.7191 124.026 26.1475C124.332 26.5713 124.753 26.7832 125.291 26.7832C125.961 26.7832 126.457 26.4961 126.781 25.9219V22.668C126.467 22.1074 125.974 21.8271 125.304 21.8271C124.758 21.8271 124.332 22.0436 124.026 22.4766C123.725 22.9095 123.575 23.5475 123.575 24.3906ZM133.362 28.1367C132.309 28.1367 131.455 27.8063 130.798 27.1455C130.147 26.4801 129.821 25.596 129.821 24.4932V24.2881C129.821 23.5498 129.962 22.8913 130.245 22.3125C130.532 21.7292 130.933 21.2757 131.448 20.9521C131.963 20.6286 132.537 20.4668 133.171 20.4668C134.178 20.4668 134.955 20.7881 135.502 21.4307C136.053 22.0732 136.329 22.9824 136.329 24.1582V24.8281H131.496C131.546 25.4388 131.749 25.9219 132.104 26.2773C132.464 26.6328 132.915 26.8105 133.458 26.8105C134.219 26.8105 134.838 26.5029 135.317 25.8877L136.213 26.7422C135.916 27.1842 135.52 27.5283 135.023 27.7744C134.531 28.016 133.977 28.1367 133.362 28.1367ZM133.164 21.7998C132.708 21.7998 132.339 21.9593 132.056 22.2783C131.778 22.5973 131.601 23.0417 131.523 23.6113H134.688V23.4883C134.652 22.9323 134.504 22.513 134.244 22.2305C133.984 21.9434 133.624 21.7998 133.164 21.7998ZM141.72 25.9902C141.72 25.694 141.597 25.4684 141.351 25.3135C141.109 25.1585 140.706 25.0218 140.141 24.9033C139.576 24.7848 139.104 24.6344 138.726 24.4521C137.897 24.0511 137.482 23.4701 137.482 22.709C137.482 22.071 137.751 21.5378 138.288 21.1094C138.826 20.681 139.51 20.4668 140.339 20.4668C141.223 20.4668 141.937 20.6855 142.479 21.123C143.026 21.5605 143.299 22.1279 143.299 22.8252H141.638C141.638 22.5062 141.52 22.2419 141.283 22.0322C141.046 21.818 140.731 21.7109 140.339 21.7109C139.975 21.7109 139.676 21.7952 139.444 21.9639C139.216 22.1325 139.102 22.3581 139.102 22.6406C139.102 22.8958 139.209 23.0941 139.423 23.2354C139.637 23.3766 140.07 23.5202 140.722 23.666C141.374 23.8073 141.884 23.9782 142.253 24.1787C142.627 24.3747 142.903 24.6117 143.08 24.8896C143.263 25.1676 143.354 25.5049 143.354 25.9014C143.354 26.5667 143.078 27.1068 142.527 27.5215C141.975 27.9316 141.253 28.1367 140.36 28.1367C139.754 28.1367 139.214 28.0273 138.74 27.8086C138.266 27.5898 137.897 27.2891 137.632 26.9062C137.368 26.5234 137.236 26.111 137.236 25.6689H138.849C138.872 26.0609 139.02 26.3639 139.293 26.5781C139.567 26.7878 139.929 26.8926 140.38 26.8926C140.818 26.8926 141.15 26.8105 141.378 26.6465C141.606 26.4779 141.72 26.2591 141.72 25.9902Z" fill="#66788A"/>
</svg>
