<svg width="238" height="46" viewBox="0 0 238 46" fill="none" xmlns="http://www.w3.org/2000/svg">
<mask id="mask0" mask-type="alpha" maskUnits="userSpaceOnUse" x="20" y="12" width="17" height="22">
<path fill-rule="evenodd" clip-rule="evenodd" d="M34.1374 19.665H33.1845V17.7593C33.1845 15.1294 31.0501 12.995 28.4202 12.995C25.7903 12.995 23.6559 15.1294 23.6559 17.7593H25.5616C25.5616 16.1775 26.8385 14.9007 28.4202 14.9007C30.002 14.9007 31.2788 16.1775 31.2788 17.7593V19.665H22.7031C21.6549 19.665 20.7974 20.5226 20.7974 21.5707V31.0993C20.7974 32.1474 21.6549 33.005 22.7031 33.005H34.1374C35.1855 33.005 36.0431 32.1474 36.0431 31.0993V21.5707C36.0431 20.5226 35.1855 19.665 34.1374 19.665ZM22.7031 31.0993V21.5707H34.1374V31.0993H22.7031ZM30.3259 26.335C30.3259 27.3831 29.4684 28.2407 28.4202 28.2407C27.3721 28.2407 26.5145 27.3831 26.5145 26.335C26.5145 25.2869 27.3721 24.4293 28.4202 24.4293C29.4684 24.4293 30.3259 25.2869 30.3259 26.335Z" fill="white"/>
</mask>
<g mask="url(#mask0)">
<rect x="16" y="11" width="24" height="24" fill="#66788A"/>
</g>
<path d="M54.583 25.6826H50.7275L49.9209 28H48.123L51.8828 18.0469H53.4346L57.2012 28H55.3965L54.583 25.6826ZM51.2129 24.2881H54.0977L52.6553 20.1592L51.2129 24.2881ZM62.5242 27.2754C62.0366 27.8496 61.3439 28.1367 60.4461 28.1367C59.644 28.1367 59.0356 27.902 58.6209 27.4326C58.2107 26.9632 58.0057 26.2842 58.0057 25.3955V20.6035H59.6668V25.375C59.6668 26.3138 60.0564 26.7832 60.8357 26.7832C61.6424 26.7832 62.187 26.4938 62.4695 25.915V20.6035H64.1307V28H62.5652L62.5242 27.2754ZM67.8541 18.8057V20.6035H69.1598V21.834H67.8541V25.9629C67.8541 26.2454 67.9088 26.4505 68.0182 26.5781C68.1321 26.7012 68.3326 26.7627 68.6197 26.7627C68.8111 26.7627 69.0048 26.7399 69.2008 26.6943V27.9795C68.8225 28.0843 68.4579 28.1367 68.107 28.1367C66.831 28.1367 66.193 27.4326 66.193 26.0244V21.834H64.9762V20.6035H66.193V18.8057H67.8541ZM72.0219 21.4102C72.5642 20.7812 73.2501 20.4668 74.0795 20.4668C75.6563 20.4668 76.4561 21.3669 76.4789 23.167V28H74.8178V23.2285C74.8178 22.7181 74.7061 22.3581 74.4828 22.1484C74.2641 21.9342 73.9405 21.8271 73.5121 21.8271C72.8467 21.8271 72.35 22.1234 72.0219 22.7158V28H70.3607V17.5H72.0219V21.4102ZM81.3713 28.1367C80.3186 28.1367 79.4641 27.8063 78.8078 27.1455C78.1561 26.4801 77.8303 25.596 77.8303 24.4932V24.2881C77.8303 23.5498 77.9715 22.8913 78.2541 22.3125C78.5412 21.7292 78.9423 21.2757 79.4572 20.9521C79.9722 20.6286 80.5464 20.4668 81.1799 20.4668C82.187 20.4668 82.9641 20.7881 83.5109 21.4307C84.0624 22.0732 84.3381 22.9824 84.3381 24.1582V24.8281H79.5051C79.5552 25.4388 79.758 25.9219 80.1135 26.2773C80.4735 26.6328 80.9247 26.8105 81.467 26.8105C82.2281 26.8105 82.8479 26.5029 83.3264 25.8877L84.2219 26.7422C83.9257 27.1842 83.5292 27.5283 83.0324 27.7744C82.5402 28.016 81.9865 28.1367 81.3713 28.1367ZM81.173 21.7998C80.7173 21.7998 80.3482 21.9593 80.0656 22.2783C79.7876 22.5973 79.6099 23.0417 79.5324 23.6113H82.6975V23.4883C82.661 22.9323 82.5129 22.513 82.2531 22.2305C81.9934 21.9434 81.6333 21.7998 81.173 21.7998ZM87.125 20.6035L87.1729 21.458C87.7197 20.7972 88.4375 20.4668 89.3262 20.4668C90.8665 20.4668 91.6504 21.3486 91.6777 23.1123V28H90.0166V23.208C90.0166 22.7386 89.9141 22.3923 89.709 22.1689C89.5085 21.9411 89.1781 21.8271 88.7178 21.8271C88.0479 21.8271 87.5488 22.1302 87.2207 22.7363V28H85.5596V20.6035H87.125ZM95.408 18.8057V20.6035H96.7137V21.834H95.408V25.9629C95.408 26.2454 95.4627 26.4505 95.5721 26.5781C95.686 26.7012 95.8865 26.7627 96.1736 26.7627C96.365 26.7627 96.5587 26.7399 96.7547 26.6943V27.9795C96.3764 28.0843 96.0118 28.1367 95.6609 28.1367C94.3849 28.1367 93.7469 27.4326 93.7469 26.0244V21.834H92.5301V20.6035H93.7469V18.8057H95.408ZM99.7057 28H98.0445V20.6035H99.7057V28ZM97.942 18.6826C97.942 18.4274 98.0217 18.2155 98.1813 18.0469C98.3453 17.8783 98.5777 17.7939 98.8785 17.7939C99.1793 17.7939 99.4117 17.8783 99.5758 18.0469C99.7398 18.2155 99.8219 18.4274 99.8219 18.6826C99.8219 18.9333 99.7398 19.1429 99.5758 19.3115C99.4117 19.4756 99.1793 19.5576 98.8785 19.5576C98.5777 19.5576 98.3453 19.4756 98.1813 19.3115C98.0217 19.1429 97.942 18.9333 97.942 18.6826ZM104.509 26.8105C104.924 26.8105 105.268 26.6898 105.541 26.4482C105.815 26.2067 105.961 25.9082 105.979 25.5527H107.544C107.526 26.013 107.383 26.4437 107.114 26.8447C106.845 27.2412 106.48 27.5557 106.02 27.7881C105.56 28.0205 105.063 28.1367 104.53 28.1367C103.495 28.1367 102.675 27.8018 102.069 27.1318C101.463 26.4619 101.16 25.5368 101.16 24.3564V24.1855C101.16 23.0599 101.46 22.1598 102.062 21.4854C102.663 20.8063 103.484 20.4668 104.523 20.4668C105.402 20.4668 106.118 20.7243 106.669 21.2393C107.225 21.7497 107.517 22.4219 107.544 23.2559H105.979C105.961 22.832 105.815 22.4834 105.541 22.21C105.273 21.9365 104.928 21.7998 104.509 21.7998C103.971 21.7998 103.557 21.9958 103.265 22.3877C102.973 22.7751 102.825 23.3652 102.821 24.1582V24.4248C102.821 25.2269 102.964 25.8262 103.251 26.2227C103.543 26.6146 103.962 26.8105 104.509 26.8105ZM113.168 28C113.095 27.8587 113.031 27.6286 112.977 27.3096C112.448 27.861 111.801 28.1367 111.035 28.1367C110.293 28.1367 109.686 27.9248 109.217 27.501C108.748 27.0771 108.513 26.5531 108.513 25.9287C108.513 25.1403 108.805 24.5365 109.388 24.1172C109.976 23.6934 110.814 23.4814 111.904 23.4814H112.922V22.9961C112.922 22.6133 112.815 22.3079 112.601 22.0801C112.387 21.8477 112.061 21.7314 111.623 21.7314C111.245 21.7314 110.935 21.8271 110.694 22.0186C110.452 22.2054 110.331 22.4447 110.331 22.7363H108.67C108.67 22.3307 108.805 21.9525 109.073 21.6016C109.342 21.2461 109.707 20.9681 110.167 20.7676C110.632 20.5671 111.149 20.4668 111.719 20.4668C112.585 20.4668 113.275 20.6855 113.79 21.123C114.305 21.556 114.57 22.1667 114.583 22.9551V26.291C114.583 26.9564 114.677 27.4873 114.863 27.8838V28H113.168ZM111.343 26.8037C111.671 26.8037 111.979 26.724 112.266 26.5645C112.557 26.4049 112.776 26.1908 112.922 25.9219V24.5273H112.027C111.411 24.5273 110.949 24.6344 110.639 24.8486C110.329 25.0628 110.174 25.3659 110.174 25.7578C110.174 26.0768 110.279 26.332 110.488 26.5234C110.703 26.7103 110.987 26.8037 111.343 26.8037ZM118.354 18.8057V20.6035H119.66V21.834H118.354V25.9629C118.354 26.2454 118.409 26.4505 118.519 26.5781C118.632 26.7012 118.833 26.7627 119.12 26.7627C119.312 26.7627 119.505 26.7399 119.701 26.6943V27.9795C119.323 28.0843 118.958 28.1367 118.607 28.1367C117.331 28.1367 116.693 27.4326 116.693 26.0244V21.834H115.477V20.6035H116.693V18.8057H118.354ZM122.652 28H120.991V20.6035H122.652V28ZM120.888 18.6826C120.888 18.4274 120.968 18.2155 121.128 18.0469C121.292 17.8783 121.524 17.7939 121.825 17.7939C122.126 17.7939 122.358 17.8783 122.522 18.0469C122.686 18.2155 122.768 18.4274 122.768 18.6826C122.768 18.9333 122.686 19.1429 122.522 19.3115C122.358 19.4756 122.126 19.5576 121.825 19.5576C121.524 19.5576 121.292 19.4756 121.128 19.3115C120.968 19.1429 120.888 18.9333 120.888 18.6826ZM124.106 24.2334C124.106 23.5088 124.25 22.8571 124.537 22.2783C124.824 21.695 125.227 21.2484 125.747 20.9385C126.266 20.624 126.863 20.4668 127.538 20.4668C128.536 20.4668 129.345 20.7881 129.964 21.4307C130.589 22.0732 130.926 22.9255 130.976 23.9873L130.983 24.377C130.983 25.1061 130.842 25.7578 130.559 26.332C130.281 26.9062 129.88 27.3506 129.356 27.665C128.837 27.9795 128.235 28.1367 127.551 28.1367C126.508 28.1367 125.671 27.7904 125.043 27.0977C124.418 26.4004 124.106 25.473 124.106 24.3154V24.2334ZM125.767 24.377C125.767 25.138 125.924 25.735 126.239 26.168C126.553 26.5964 126.991 26.8105 127.551 26.8105C128.112 26.8105 128.547 26.5918 128.857 26.1543C129.171 25.7168 129.329 25.0765 129.329 24.2334C129.329 23.486 129.167 22.8936 128.843 22.4561C128.524 22.0186 128.089 21.7998 127.538 21.7998C126.995 21.7998 126.565 22.0163 126.246 22.4492C125.927 22.8776 125.767 23.5202 125.767 24.377ZM133.879 20.6035L133.927 21.458C134.474 20.7972 135.192 20.4668 136.08 20.4668C137.621 20.4668 138.405 21.3486 138.432 23.1123V28H136.771V23.208C136.771 22.7386 136.668 22.3923 136.463 22.1689C136.263 21.9411 135.932 21.8271 135.472 21.8271C134.802 21.8271 134.303 22.1302 133.975 22.7363V28H132.314V20.6035H133.879Z" fill="#66788A"/>
</svg>
