<svg width="238" height="46" viewBox="0 0 238 46" fill="none" xmlns="http://www.w3.org/2000/svg">
<mask id="mask0" mask-type="alpha" maskUnits="userSpaceOnUse" x="18" y="14" width="20" height="18">
<path fill-rule="evenodd" clip-rule="evenodd" d="M32.3024 20.825H36.4697C36.9482 20.825 37.3397 21.2165 37.3397 21.695L37.3136 21.9299L35.1038 29.9948C34.895 30.7256 34.2251 31.265 33.4247 31.265H22.1147C21.3143 31.265 20.6444 30.7256 20.4443 29.9948L18.2345 21.9299C18.2084 21.8516 18.1997 21.7733 18.1997 21.695C18.1997 21.2165 18.5912 20.825 19.0697 20.825H23.237L27.0476 15.1265C27.2129 14.8742 27.4913 14.7524 27.7697 14.7524C28.0481 14.7524 28.3265 14.8742 28.4918 15.1178L32.3024 20.825ZM30.2057 20.825L27.7697 17.171L25.3337 20.825H30.2057ZM33.4247 29.525L22.1234 29.5337L20.2094 22.565H35.3387L33.4247 29.525ZM26.0297 26.045C26.0297 25.088 26.8127 24.305 27.7697 24.305C28.7267 24.305 29.5097 25.088 29.5097 26.045C29.5097 27.002 28.7267 27.785 27.7697 27.785C26.8127 27.785 26.0297 27.002 26.0297 26.045Z" fill="white"/>
</mask>
<g mask="url(#mask0)">
<rect x="16" y="11" width="24" height="24" fill="#66788A"/>
</g>
<path d="M50.7412 24.3018V28H49.0117V18.0469H52.8193C53.9313 18.0469 54.8132 18.3363 55.4648 18.915C56.1211 19.4938 56.4492 20.2594 56.4492 21.2119C56.4492 22.1872 56.1279 22.946 55.4854 23.4883C54.8473 24.0306 53.9518 24.3018 52.7988 24.3018H50.7412ZM50.7412 22.9141H52.8193C53.4346 22.9141 53.904 22.7705 54.2275 22.4834C54.5511 22.1917 54.7129 21.7725 54.7129 21.2256C54.7129 20.6878 54.5488 20.2594 54.2207 19.9404C53.8926 19.6169 53.4414 19.4505 52.8672 19.4414H50.7412V22.9141ZM61.6287 22.1211C61.41 22.0846 61.1844 22.0664 60.952 22.0664C60.1909 22.0664 59.6782 22.3581 59.4139 22.9414V28H57.7527V20.6035H59.3387L59.3797 21.4307C59.7807 20.7881 60.3367 20.4668 61.0477 20.4668C61.2846 20.4668 61.4806 20.4987 61.6355 20.5625L61.6287 22.1211ZM62.0709 24.2334C62.0709 23.5088 62.2145 22.8571 62.5016 22.2783C62.7887 21.695 63.192 21.2484 63.7115 20.9385C64.2311 20.624 64.8281 20.4668 65.5025 20.4668C66.5006 20.4668 67.3095 20.7881 67.9293 21.4307C68.5536 22.0732 68.8909 22.9255 68.941 23.9873L68.9479 24.377C68.9479 25.1061 68.8066 25.7578 68.524 26.332C68.246 26.9062 67.845 27.3506 67.3209 27.665C66.8014 27.9795 66.1998 28.1367 65.5162 28.1367C64.4726 28.1367 63.6363 27.7904 63.0074 27.0977C62.3831 26.4004 62.0709 25.473 62.0709 24.3154V24.2334ZM63.732 24.377C63.732 25.138 63.8893 25.735 64.2037 26.168C64.5182 26.5964 64.9557 26.8105 65.5162 26.8105C66.0768 26.8105 66.512 26.5918 66.8219 26.1543C67.1363 25.7168 67.2936 25.0765 67.2936 24.2334C67.2936 23.486 67.1318 22.8936 66.8082 22.4561C66.4892 22.0186 66.054 21.7998 65.5025 21.7998C64.9602 21.7998 64.5296 22.0163 64.2105 22.4492C63.8915 22.8776 63.732 23.5202 63.732 24.377ZM69.9916 24.2471C69.9916 23.1077 70.2559 22.194 70.7846 21.5059C71.3132 20.8132 72.0219 20.4668 72.9105 20.4668C73.6944 20.4668 74.3279 20.7402 74.8109 21.2871V17.5H76.4721V28H74.9682L74.8861 27.2344C74.3894 27.8359 73.7263 28.1367 72.8969 28.1367C72.031 28.1367 71.3292 27.7881 70.7914 27.0908C70.2582 26.3936 69.9916 25.4456 69.9916 24.2471ZM71.6527 24.3906C71.6527 25.1426 71.7963 25.7305 72.0834 26.1543C72.3751 26.5736 72.7875 26.7832 73.3207 26.7832C73.9997 26.7832 74.4965 26.4801 74.8109 25.874V22.7158C74.5056 22.1234 74.0134 21.8271 73.3344 21.8271C72.7966 21.8271 72.3819 22.0413 72.0902 22.4697C71.7986 22.8936 71.6527 23.5339 71.6527 24.3906ZM82.6359 27.2754C82.1483 27.8496 81.4556 28.1367 80.5578 28.1367C79.7557 28.1367 79.1473 27.902 78.7326 27.4326C78.3225 26.9632 78.1174 26.2842 78.1174 25.3955V20.6035H79.7785V25.375C79.7785 26.3138 80.1682 26.7832 80.9475 26.7832C81.7541 26.7832 82.2987 26.4938 82.5812 25.915V20.6035H84.2424V28H82.677L82.6359 27.2754ZM88.9229 26.8105C89.3376 26.8105 89.6816 26.6898 89.9551 26.4482C90.2285 26.2067 90.3743 25.9082 90.3926 25.5527H91.958C91.9398 26.013 91.7962 26.4437 91.5273 26.8447C91.2585 27.2412 90.8939 27.5557 90.4336 27.7881C89.9733 28.0205 89.4766 28.1367 88.9434 28.1367C87.9089 28.1367 87.0885 27.8018 86.4824 27.1318C85.8763 26.4619 85.5732 25.5368 85.5732 24.3564V24.1855C85.5732 23.0599 85.874 22.1598 86.4756 21.4854C87.0771 20.8063 87.8975 20.4668 88.9365 20.4668C89.8161 20.4668 90.5316 20.7243 91.083 21.2393C91.639 21.7497 91.9307 22.4219 91.958 23.2559H90.3926C90.3743 22.832 90.2285 22.4834 89.9551 22.21C89.6862 21.9365 89.3421 21.7998 88.9229 21.7998C88.3851 21.7998 87.9704 21.9958 87.6787 22.3877C87.387 22.7751 87.2389 23.3652 87.2344 24.1582V24.4248C87.2344 25.2269 87.3779 25.8262 87.665 26.2227C87.9567 26.6146 88.376 26.8105 88.9229 26.8105ZM95.2439 18.8057V20.6035H96.5496V21.834H95.2439V25.9629C95.2439 26.2454 95.2986 26.4505 95.408 26.5781C95.5219 26.7012 95.7225 26.7627 96.0096 26.7627C96.201 26.7627 96.3947 26.7399 96.5906 26.6943V27.9795C96.2124 28.0843 95.8478 28.1367 95.4969 28.1367C94.2208 28.1367 93.5828 27.4326 93.5828 26.0244V21.834H92.366V20.6035H93.5828V18.8057H95.2439ZM101.921 25.9902C101.921 25.694 101.797 25.4684 101.551 25.3135C101.31 25.1585 100.907 25.0218 100.341 24.9033C99.7763 24.7848 99.3046 24.6344 98.9264 24.4521C98.0969 24.0511 97.6822 23.4701 97.6822 22.709C97.6822 22.071 97.9511 21.5378 98.4889 21.1094C99.0266 20.681 99.7102 20.4668 100.54 20.4668C101.424 20.4668 102.137 20.6855 102.679 21.123C103.226 21.5605 103.5 22.1279 103.5 22.8252H101.838C101.838 22.5062 101.72 22.2419 101.483 22.0322C101.246 21.818 100.932 21.7109 100.54 21.7109C100.175 21.7109 99.8766 21.7952 99.6441 21.9639C99.4163 22.1325 99.3023 22.3581 99.3023 22.6406C99.3023 22.8958 99.4094 23.0941 99.6236 23.2354C99.8378 23.3766 100.271 23.5202 100.922 23.666C101.574 23.8073 102.085 23.9782 102.454 24.1787C102.827 24.3747 103.103 24.6117 103.281 24.8896C103.463 25.1676 103.554 25.5049 103.554 25.9014C103.554 26.5667 103.279 27.1068 102.727 27.5215C102.176 27.9316 101.453 28.1367 100.56 28.1367C99.954 28.1367 99.414 28.0273 98.94 27.8086C98.4661 27.5898 98.0969 27.2891 97.8326 26.9062C97.5683 26.5234 97.4361 26.111 97.4361 25.6689H99.0494C99.0722 26.0609 99.2203 26.3639 99.4938 26.5781C99.7672 26.7878 100.129 26.8926 100.581 26.8926C101.018 26.8926 101.351 26.8105 101.579 26.6465C101.807 26.4779 101.921 26.2591 101.921 25.9902Z" fill="#66788A"/>
</svg>
