<svg width="238" height="46" viewBox="0 0 238 46" fill="none" xmlns="http://www.w3.org/2000/svg">
<mask id="mask0" mask-type="alpha" maskUnits="userSpaceOnUse" x="18" y="15" width="19" height="16">
<path fill-rule="evenodd" clip-rule="evenodd" d="M18.8638 18.7121V15.8536H31.2509V18.7121H26.4866V30.1464H23.6281V18.7121H18.8638ZM28.3923 20.6179H36.9681V23.4764H34.1095V30.1464H31.2509V23.4764H28.3923V20.6179Z" fill="white"/>
</mask>
<g mask="url(#mask0)">
<rect x="16" y="11" width="24" height="24" fill="#66788A"/>
</g>
<path d="M56.2031 19.4414H53.0996V28H51.3838V19.4414H48.3076V18.0469H56.2031V19.4414ZM59.3318 25.6211L60.8357 20.6035H62.6062L59.6668 29.1211C59.2156 30.3652 58.45 30.9873 57.3699 30.9873C57.1284 30.9873 56.8618 30.9463 56.5701 30.8643V29.5791L56.8846 29.5996C57.3038 29.5996 57.6183 29.5221 57.8279 29.3672C58.0421 29.2168 58.2107 28.9616 58.3338 28.6016L58.573 27.9658L55.9754 20.6035H57.7664L59.3318 25.6211ZM69.9937 24.377C69.9937 25.5208 69.734 26.4346 69.2145 27.1182C68.6949 27.7972 67.9977 28.1367 67.1227 28.1367C66.3115 28.1367 65.662 27.8701 65.1744 27.3369V30.8438H63.5133V20.6035H65.0445L65.1129 21.3555C65.6005 20.763 66.2636 20.4668 67.1021 20.4668C68.0045 20.4668 68.7109 20.804 69.2213 21.4785C69.7363 22.1484 69.9937 23.0804 69.9937 24.2744V24.377ZM68.3395 24.2334C68.3395 23.4951 68.1913 22.9095 67.8951 22.4766C67.6035 22.0436 67.1842 21.8271 66.6373 21.8271C65.9583 21.8271 65.4706 22.1074 65.1744 22.668V25.9492C65.4752 26.5234 65.9674 26.8105 66.651 26.8105C67.1796 26.8105 67.5921 26.5986 67.8883 26.1748C68.1891 25.7464 68.3395 25.0993 68.3395 24.2334ZM71.0443 24.2334C71.0443 23.5088 71.1879 22.8571 71.475 22.2783C71.7621 21.695 72.1654 21.2484 72.685 20.9385C73.2045 20.624 73.8015 20.4668 74.476 20.4668C75.474 20.4668 76.2829 20.7881 76.9027 21.4307C77.5271 22.0732 77.8643 22.9255 77.9145 23.9873L77.9213 24.377C77.9213 25.1061 77.78 25.7578 77.4975 26.332C77.2195 26.9062 76.8184 27.3506 76.2943 27.665C75.7748 27.9795 75.1732 28.1367 74.4896 28.1367C73.446 28.1367 72.6098 27.7904 71.9809 27.0977C71.3565 26.4004 71.0443 25.473 71.0443 24.3154V24.2334ZM72.7055 24.377C72.7055 25.138 72.8627 25.735 73.1771 26.168C73.4916 26.5964 73.9291 26.8105 74.4896 26.8105C75.0502 26.8105 75.4854 26.5918 75.7953 26.1543C76.1098 25.7168 76.267 25.0765 76.267 24.2334C76.267 23.486 76.1052 22.8936 75.7816 22.4561C75.4626 22.0186 75.0274 21.7998 74.476 21.7998C73.9337 21.7998 73.503 22.0163 73.184 22.4492C72.865 22.8776 72.7055 23.5202 72.7055 24.377ZM78.9855 24.2471C78.9855 23.0986 79.2544 22.1826 79.7922 21.499C80.3345 20.8109 81.0523 20.4668 81.9455 20.4668C82.7886 20.4668 83.4517 20.7607 83.9348 21.3486L84.01 20.6035H85.507V27.7744C85.507 28.7451 85.204 29.5107 84.5979 30.0713C83.9963 30.6318 83.1828 30.9121 82.1574 30.9121C81.6151 30.9121 81.0842 30.7982 80.5646 30.5703C80.0497 30.347 79.6577 30.0531 79.3889 29.6885L80.175 28.6904C80.6854 29.2965 81.3143 29.5996 82.0617 29.5996C82.6132 29.5996 83.0484 29.4492 83.3674 29.1484C83.6864 28.8522 83.8459 28.4147 83.8459 27.8359V27.3369C83.3674 27.8701 82.7294 28.1367 81.9318 28.1367C81.0659 28.1367 80.3573 27.7926 79.8059 27.1045C79.259 26.4163 78.9855 25.4639 78.9855 24.2471ZM80.6398 24.3906C80.6398 25.1335 80.7902 25.7191 81.091 26.1475C81.3964 26.5713 81.8179 26.7832 82.3557 26.7832C83.0256 26.7832 83.5223 26.4961 83.8459 25.9219V22.668C83.5314 22.1074 83.0393 21.8271 82.3693 21.8271C81.8225 21.8271 81.3964 22.0436 81.091 22.4766C80.7902 22.9095 80.6398 23.5475 80.6398 24.3906ZM91.042 22.1211C90.8232 22.0846 90.5977 22.0664 90.3652 22.0664C89.6042 22.0664 89.0915 22.3581 88.8271 22.9414V28H87.166V20.6035H88.752L88.793 21.4307C89.194 20.7881 89.75 20.4668 90.4609 20.4668C90.6979 20.4668 90.8939 20.4987 91.0488 20.5625L91.042 22.1211ZM96.2557 28C96.1827 27.8587 96.1189 27.6286 96.0643 27.3096C95.5356 27.861 94.8885 28.1367 94.1229 28.1367C93.38 28.1367 92.7739 27.9248 92.3045 27.501C91.8351 27.0771 91.6004 26.5531 91.6004 25.9287C91.6004 25.1403 91.8921 24.5365 92.4754 24.1172C93.0633 23.6934 93.9018 23.4814 94.991 23.4814H96.0096V22.9961C96.0096 22.6133 95.9025 22.3079 95.6883 22.0801C95.4741 21.8477 95.1482 21.7314 94.7107 21.7314C94.3325 21.7314 94.0226 21.8271 93.7811 22.0186C93.5395 22.2054 93.4188 22.4447 93.4188 22.7363H91.7576C91.7576 22.3307 91.8921 21.9525 92.1609 21.6016C92.4298 21.2461 92.7944 20.9681 93.2547 20.7676C93.7195 20.5671 94.2368 20.4668 94.8064 20.4668C95.6723 20.4668 96.3628 20.6855 96.8777 21.123C97.3927 21.556 97.657 22.1667 97.6707 22.9551V26.291C97.6707 26.9564 97.7641 27.4873 97.951 27.8838V28H96.2557ZM94.4305 26.8037C94.7586 26.8037 95.0662 26.724 95.3533 26.5645C95.645 26.4049 95.8637 26.1908 96.0096 25.9219V24.5273H95.1141C94.4988 24.5273 94.0363 24.6344 93.7264 24.8486C93.4165 25.0628 93.2615 25.3659 93.2615 25.7578C93.2615 26.0768 93.3663 26.332 93.576 26.5234C93.7902 26.7103 94.075 26.8037 94.4305 26.8037ZM105.838 24.377C105.838 25.5208 105.578 26.4346 105.058 27.1182C104.539 27.7972 103.841 28.1367 102.966 28.1367C102.155 28.1367 101.506 27.8701 101.018 27.3369V30.8438H99.357V20.6035H100.888L100.957 21.3555C101.444 20.763 102.107 20.4668 102.946 20.4668C103.848 20.4668 104.555 20.804 105.065 21.4785C105.58 22.1484 105.838 23.0804 105.838 24.2744V24.377ZM104.183 24.2334C104.183 23.4951 104.035 22.9095 103.739 22.4766C103.447 22.0436 103.028 21.8271 102.481 21.8271C101.802 21.8271 101.314 22.1074 101.018 22.668V25.9492C101.319 26.5234 101.811 26.8105 102.495 26.8105C103.023 26.8105 103.436 26.5986 103.732 26.1748C104.033 25.7464 104.183 25.0993 104.183 24.2334ZM108.836 21.4102C109.379 20.7812 110.065 20.4668 110.894 20.4668C112.471 20.4668 113.271 21.3669 113.293 23.167V28H111.632V23.2285C111.632 22.7181 111.521 22.3581 111.297 22.1484C111.079 21.9342 110.755 21.8271 110.327 21.8271C109.661 21.8271 109.164 22.1234 108.836 22.7158V28H107.175V17.5H108.836V21.4102ZM117.516 25.6211L119.02 20.6035H120.79L117.851 29.1211C117.4 30.3652 116.634 30.9873 115.554 30.9873C115.312 30.9873 115.046 30.9463 114.754 30.8643V29.5791L115.069 29.5996C115.488 29.5996 115.802 29.5221 116.012 29.3672C116.226 29.2168 116.395 28.9616 116.518 28.6016L116.757 27.9658L114.159 20.6035H115.95L117.516 25.6211Z" fill="#66788A"/>
</svg>
