<svg width="195" height="160" viewBox="0 0 195 160" fill="none" xmlns="http://www.w3.org/2000/svg">
<path fill-rule="evenodd" clip-rule="evenodd" d="M2 3H16C17.1 3 18 3.9 18 5V19C18 20.1 17.1 21 16 21H2C0.9 21 0 20.1 0 19V5C0 3.9 0.9 3 2 3ZM16 19V5H2V19H16Z" fill="#425A70"/>
<mask id="mask0" mask-type="alpha" maskUnits="userSpaceOnUse" x="0" y="3" width="18" height="18">
<path fill-rule="evenodd" clip-rule="evenodd" d="M2 3H16C17.1 3 18 3.9 18 5V19C18 20.1 17.1 21 16 21H2C0.9 21 0 20.1 0 19V5C0 3.9 0.9 3 2 3ZM16 19V5H2V19H16Z" fill="white"/>
</mask>
<g mask="url(#mask0)">
</g>
<path d="M34.75 11.7422H29.8203V15.7734H35.5469V17H28.3203V5.625H35.4688V6.85938H29.8203V10.5156H34.75V11.7422ZM38.6969 8.54688L38.7359 9.48438C39.3557 8.75521 40.1917 8.39062 41.2437 8.39062C42.426 8.39062 43.2307 8.84375 43.6578 9.75C43.9391 9.34375 44.3036 9.01562 44.7516 8.76562C45.2047 8.51562 45.7385 8.39062 46.3531 8.39062C48.2073 8.39062 49.15 9.3724 49.1812 11.3359V17H47.7359V11.4219C47.7359 10.8177 47.5979 10.3672 47.3219 10.0703C47.0458 9.76823 46.5823 9.61719 45.9312 9.61719C45.3948 9.61719 44.9495 9.77865 44.5953 10.1016C44.2411 10.4193 44.0354 10.849 43.9781 11.3906V17H42.525V11.4609C42.525 10.2318 41.9234 9.61719 40.7203 9.61719C39.7724 9.61719 39.124 10.0208 38.775 10.8281V17H37.3297V8.54688H38.6969ZM56.7375 17C56.6542 16.8333 56.5865 16.5365 56.5344 16.1094C55.8625 16.8073 55.0604 17.1562 54.1281 17.1562C53.2948 17.1562 52.6099 16.9219 52.0734 16.4531C51.5422 15.9792 51.2766 15.3802 51.2766 14.6562C51.2766 13.776 51.6099 13.0938 52.2766 12.6094C52.9484 12.1198 53.8911 11.875 55.1047 11.875H56.5109V11.2109C56.5109 10.7057 56.3599 10.3047 56.0578 10.0078C55.7557 9.70573 55.3104 9.55469 54.7219 9.55469C54.2062 9.55469 53.774 9.6849 53.425 9.94531C53.076 10.2057 52.9016 10.5208 52.9016 10.8906H51.4484C51.4484 10.4688 51.5969 10.0625 51.8937 9.67188C52.1958 9.27604 52.6021 8.96354 53.1125 8.73438C53.6281 8.50521 54.1932 8.39062 54.8078 8.39062C55.7818 8.39062 56.5448 8.63542 57.0969 9.125C57.649 9.60938 57.9354 10.2786 57.9562 11.1328V15.0234C57.9562 15.7995 58.0552 16.4167 58.2531 16.875V17H56.7375ZM54.3391 15.8984C54.7922 15.8984 55.2219 15.7812 55.6281 15.5469C56.0344 15.3125 56.3286 15.0078 56.5109 14.6328V12.8984H55.3781C53.6073 12.8984 52.7219 13.4167 52.7219 14.4531C52.7219 14.9062 52.8729 15.2604 53.175 15.5156C53.4771 15.7708 53.8651 15.8984 54.3391 15.8984ZM61.9422 17H60.4969V8.54688H61.9422V17ZM60.3797 6.30469C60.3797 6.07031 60.45 5.8724 60.5906 5.71094C60.7365 5.54948 60.95 5.46875 61.2313 5.46875C61.5125 5.46875 61.726 5.54948 61.8719 5.71094C62.0177 5.8724 62.0906 6.07031 62.0906 6.30469C62.0906 6.53906 62.0177 6.73438 61.8719 6.89062C61.726 7.04688 61.5125 7.125 61.2313 7.125C60.95 7.125 60.7365 7.04688 60.5906 6.89062C60.45 6.73438 60.3797 6.53906 60.3797 6.30469ZM65.9828 17H64.5375V5H65.9828V17Z" fill="black" fill-opacity="0.6"/>
<path d="M29.8203 52.5469V57H28.3203V45.625H32.5156C33.7604 45.625 34.7344 45.9427 35.4375 46.5781C36.1458 47.2135 36.5 48.0547 36.5 49.1016C36.5 50.2057 36.1536 51.0573 35.4609 51.6562C34.7734 52.25 33.7865 52.5469 32.5 52.5469H29.8203ZM29.8203 51.3203H32.5156C33.3177 51.3203 33.9323 51.1328 34.3594 50.7578C34.7865 50.3776 35 49.8307 35 49.1172C35 48.4401 34.7865 47.8984 34.3594 47.4922C33.9323 47.0859 33.3464 46.875 32.6016 46.8594H29.8203V51.3203ZM43.5562 56.1641C42.9937 56.8255 42.1682 57.1562 41.0797 57.1562C40.1786 57.1562 39.4911 56.8958 39.0172 56.375C38.5484 55.849 38.3115 55.0729 38.3062 54.0469V48.5469H39.7516V54.0078C39.7516 55.2891 40.2724 55.9297 41.3141 55.9297C42.4182 55.9297 43.1526 55.5182 43.5172 54.6953V48.5469H44.9625V57H43.5875L43.5562 56.1641ZM52.2375 54.7578C52.2375 54.3672 52.0891 54.0651 51.7922 53.8516C51.5005 53.6328 50.9875 53.4453 50.2531 53.2891C49.524 53.1328 48.9432 52.9453 48.5109 52.7266C48.0839 52.5078 47.7661 52.2474 47.5578 51.9453C47.3547 51.6432 47.2531 51.2839 47.2531 50.8672C47.2531 50.1745 47.5448 49.5885 48.1281 49.1094C48.7167 48.6302 49.4667 48.3906 50.3781 48.3906C51.3365 48.3906 52.1125 48.638 52.7062 49.1328C53.3052 49.6276 53.6047 50.2604 53.6047 51.0312H52.1516C52.1516 50.6354 51.9823 50.2943 51.6437 50.0078C51.3104 49.7214 50.8885 49.5781 50.3781 49.5781C49.8521 49.5781 49.4406 49.6927 49.1437 49.9219C48.8469 50.151 48.6984 50.4505 48.6984 50.8203C48.6984 51.1693 48.8365 51.4323 49.1125 51.6094C49.3885 51.7865 49.8859 51.9557 50.6047 52.1172C51.3286 52.2786 51.9146 52.4714 52.3625 52.6953C52.8104 52.9193 53.1411 53.1901 53.3547 53.5078C53.5734 53.8203 53.6828 54.2031 53.6828 54.6562C53.6828 55.4115 53.3807 56.0182 52.7766 56.4766C52.1724 56.9297 51.3885 57.1562 50.425 57.1562C49.7479 57.1562 49.149 57.0365 48.6281 56.7969C48.1073 56.5573 47.6984 56.224 47.4016 55.7969C47.1099 55.3646 46.9641 54.8984 46.9641 54.3984H48.4094C48.4354 54.8828 48.6281 55.2682 48.9875 55.5547C49.3521 55.8359 49.8312 55.9766 50.425 55.9766C50.9719 55.9766 51.4094 55.8672 51.7375 55.6484C52.0708 55.4245 52.2375 55.1276 52.2375 54.7578ZM57.1609 49.5703C57.8016 48.7839 58.6349 48.3906 59.6609 48.3906C61.4474 48.3906 62.3484 49.3984 62.3641 51.4141V57H60.9188V51.4062C60.9135 50.7969 60.7729 50.3464 60.4969 50.0547C60.226 49.763 59.8016 49.6172 59.2234 49.6172C58.7547 49.6172 58.3432 49.7422 57.9891 49.9922C57.6349 50.2422 57.3589 50.5703 57.1609 50.9766V57H55.7156V45H57.1609V49.5703ZM70.1641 48.5469L70.2109 49.6094C70.8568 48.7969 71.7005 48.3906 72.7422 48.3906C74.5286 48.3906 75.4297 49.3984 75.4453 51.4141V57H74V51.4062C73.9948 50.7969 73.8542 50.3464 73.5781 50.0547C73.3073 49.763 72.8828 49.6172 72.3047 49.6172C71.8359 49.6172 71.4245 49.7422 71.0703 49.9922C70.7161 50.2422 70.4401 50.5703 70.2422 50.9766V57H68.7969V48.5469H70.1641ZM77.3922 52.6953C77.3922 51.8672 77.5536 51.1224 77.8766 50.4609C78.2047 49.7995 78.6578 49.2891 79.2359 48.9297C79.8193 48.5703 80.4833 48.3906 81.2281 48.3906C82.3792 48.3906 83.3089 48.7891 84.0172 49.5859C84.7307 50.3828 85.0875 51.4427 85.0875 52.7656V52.8672C85.0875 53.6901 84.9286 54.4297 84.6109 55.0859C84.2984 55.737 83.8479 56.2448 83.2594 56.6094C82.676 56.974 82.0042 57.1562 81.2438 57.1562C80.0979 57.1562 79.1682 56.7578 78.4547 55.9609C77.7464 55.1641 77.3922 54.1094 77.3922 52.7969V52.6953ZM78.8453 52.8672C78.8453 53.8047 79.0615 54.5573 79.4938 55.125C79.9313 55.6927 80.5146 55.9766 81.2438 55.9766C81.9781 55.9766 82.5615 55.6901 82.9938 55.1172C83.426 54.5391 83.6422 53.7318 83.6422 52.6953C83.6422 51.7682 83.4208 51.0182 82.9781 50.4453C82.5406 49.8672 81.9573 49.5781 81.2281 49.5781C80.5146 49.5781 79.9391 49.862 79.5016 50.4297C79.0641 50.9974 78.8453 51.8099 78.8453 52.8672ZM89.0109 46.5V48.5469H90.5891V49.6641H89.0109V54.9062C89.0109 55.2448 89.0812 55.5 89.2219 55.6719C89.3625 55.8385 89.6021 55.9219 89.9406 55.9219C90.1073 55.9219 90.3365 55.8906 90.6281 55.8281V57C90.2479 57.1042 89.8781 57.1562 89.5187 57.1562C88.8729 57.1562 88.3859 56.9609 88.0578 56.5703C87.7297 56.1797 87.5656 55.625 87.5656 54.9062V49.6641H86.0266V48.5469H87.5656V46.5H89.0109ZM94.0047 57H92.5594V48.5469H94.0047V57ZM92.4422 46.3047C92.4422 46.0703 92.5125 45.8724 92.6531 45.7109C92.799 45.5495 93.0125 45.4688 93.2937 45.4688C93.575 45.4688 93.7885 45.5495 93.9344 45.7109C94.0802 45.8724 94.1531 46.0703 94.1531 46.3047C94.1531 46.5391 94.0802 46.7344 93.9344 46.8906C93.7885 47.0469 93.575 47.125 93.2937 47.125C93.0125 47.125 92.799 47.0469 92.6531 46.8906C92.5125 46.7344 92.4422 46.5391 92.4422 46.3047ZM96.9594 57V49.6641H95.6234V48.5469H96.9594V47.8281C96.9594 46.8854 97.2276 46.151 97.7641 45.625C98.3057 45.099 99.0687 44.8359 100.053 44.8359C100.636 44.8359 101.373 44.9948 102.264 45.3125L102.022 46.5312C101.371 46.2708 100.751 46.1406 100.162 46.1406C99.5427 46.1406 99.0948 46.2812 98.8187 46.5625C98.5479 46.8385 98.4125 47.2552 98.4125 47.8125V48.5469H100.139V49.6641H98.4125V57H96.9594ZM102.983 57H101.53V48.5469H102.983V57ZM108.875 55.9766C109.391 55.9766 109.841 55.8203 110.227 55.5078C110.612 55.1953 110.826 54.8047 110.867 54.3359H112.234C112.208 54.8203 112.042 55.2812 111.734 55.7188C111.427 56.1562 111.016 56.5052 110.5 56.7656C109.99 57.026 109.448 57.1562 108.875 57.1562C107.724 57.1562 106.807 56.7734 106.125 56.0078C105.448 55.237 105.109 54.1849 105.109 52.8516V52.6094C105.109 51.7865 105.26 51.0547 105.562 50.4141C105.865 49.7734 106.297 49.276 106.859 48.9219C107.427 48.5677 108.096 48.3906 108.867 48.3906C109.815 48.3906 110.602 48.6745 111.227 49.2422C111.857 49.8099 112.193 50.5469 112.234 51.4531H110.867C110.826 50.9062 110.617 50.4583 110.242 50.1094C109.872 49.7552 109.414 49.5781 108.867 49.5781C108.133 49.5781 107.562 49.8438 107.156 50.375C106.755 50.901 106.555 51.6641 106.555 52.6641V52.9375C106.555 53.9115 106.755 54.6615 107.156 55.1875C107.557 55.7135 108.13 55.9766 108.875 55.9766ZM119.228 57C119.145 56.8333 119.077 56.5365 119.025 56.1094C118.353 56.8073 117.551 57.1562 116.619 57.1562C115.785 57.1562 115.101 56.9219 114.564 56.4531C114.033 55.9792 113.767 55.3802 113.767 54.6562C113.767 53.776 114.101 53.0938 114.767 52.6094C115.439 52.1198 116.382 51.875 117.595 51.875H119.002V51.2109C119.002 50.7057 118.851 50.3047 118.548 50.0078C118.246 49.7057 117.801 49.5547 117.213 49.5547C116.697 49.5547 116.265 49.6849 115.916 49.9453C115.567 50.2057 115.392 50.5208 115.392 50.8906H113.939C113.939 50.4688 114.088 50.0625 114.384 49.6719C114.686 49.276 115.093 48.9635 115.603 48.7344C116.119 48.5052 116.684 48.3906 117.298 48.3906C118.272 48.3906 119.035 48.6354 119.588 49.125C120.14 49.6094 120.426 50.2786 120.447 51.1328V55.0234C120.447 55.7995 120.546 56.4167 120.744 56.875V57H119.228ZM116.83 55.8984C117.283 55.8984 117.713 55.7812 118.119 55.5469C118.525 55.3125 118.819 55.0078 119.002 54.6328V52.8984H117.869C116.098 52.8984 115.213 53.4167 115.213 54.4531C115.213 54.9062 115.364 55.2604 115.666 55.5156C115.968 55.7708 116.356 55.8984 116.83 55.8984ZM124.823 46.5V48.5469H126.402V49.6641H124.823V54.9062C124.823 55.2448 124.894 55.5 125.034 55.6719C125.175 55.8385 125.415 55.9219 125.753 55.9219C125.92 55.9219 126.149 55.8906 126.441 55.8281V57C126.06 57.1042 125.691 57.1562 125.331 57.1562C124.685 57.1562 124.198 56.9609 123.87 56.5703C123.542 56.1797 123.378 55.625 123.378 54.9062V49.6641H121.839V48.5469H123.378V46.5H124.823ZM129.817 57H128.372V48.5469H129.817V57ZM128.255 46.3047C128.255 46.0703 128.325 45.8724 128.466 45.7109C128.611 45.5495 128.825 45.4688 129.106 45.4688C129.387 45.4688 129.601 45.5495 129.747 45.7109C129.893 45.8724 129.966 46.0703 129.966 46.3047C129.966 46.5391 129.893 46.7344 129.747 46.8906C129.601 47.0469 129.387 47.125 129.106 47.125C128.825 47.125 128.611 47.0469 128.466 46.8906C128.325 46.7344 128.255 46.5391 128.255 46.3047ZM131.905 52.6953C131.905 51.8672 132.066 51.1224 132.389 50.4609C132.717 49.7995 133.17 49.2891 133.748 48.9297C134.332 48.5703 134.996 48.3906 135.741 48.3906C136.892 48.3906 137.821 48.7891 138.53 49.5859C139.243 50.3828 139.6 51.4427 139.6 52.7656V52.8672C139.6 53.6901 139.441 54.4297 139.123 55.0859C138.811 55.737 138.36 56.2448 137.772 56.6094C137.189 56.974 136.517 57.1562 135.756 57.1562C134.61 57.1562 133.681 56.7578 132.967 55.9609C132.259 55.1641 131.905 54.1094 131.905 52.7969V52.6953ZM133.358 52.8672C133.358 53.8047 133.574 54.5573 134.006 55.125C134.444 55.6927 135.027 55.9766 135.756 55.9766C136.491 55.9766 137.074 55.6901 137.506 55.1172C137.939 54.5391 138.155 53.7318 138.155 52.6953C138.155 51.7682 137.933 51.0182 137.491 50.4453C137.053 49.8672 136.47 49.5781 135.741 49.5781C135.027 49.5781 134.452 49.862 134.014 50.4297C133.577 50.9974 133.358 51.8099 133.358 52.8672ZM142.93 48.5469L142.977 49.6094C143.622 48.7969 144.466 48.3906 145.508 48.3906C147.294 48.3906 148.195 49.3984 148.211 51.4141V57H146.766V51.4062C146.76 50.7969 146.62 50.3464 146.344 50.0547C146.073 49.763 145.648 49.6172 145.07 49.6172C144.602 49.6172 144.19 49.7422 143.836 49.9922C143.482 50.2422 143.206 50.5703 143.008 50.9766V57H141.562V48.5469H142.93ZM155.463 54.7578C155.463 54.3672 155.314 54.0651 155.017 53.8516C154.726 53.6328 154.213 53.4453 153.478 53.2891C152.749 53.1328 152.168 52.9453 151.736 52.7266C151.309 52.5078 150.991 52.2474 150.783 51.9453C150.58 51.6432 150.478 51.2839 150.478 50.8672C150.478 50.1745 150.77 49.5885 151.353 49.1094C151.942 48.6302 152.692 48.3906 153.603 48.3906C154.561 48.3906 155.338 48.638 155.931 49.1328C156.53 49.6276 156.83 50.2604 156.83 51.0312H155.377C155.377 50.6354 155.207 50.2943 154.869 50.0078C154.535 49.7214 154.114 49.5781 153.603 49.5781C153.077 49.5781 152.666 49.6927 152.369 49.9219C152.072 50.151 151.923 50.4505 151.923 50.8203C151.923 51.1693 152.061 51.4323 152.338 51.6094C152.614 51.7865 153.111 51.9557 153.83 52.1172C154.554 52.2786 155.14 52.4714 155.588 52.6953C156.035 52.9193 156.366 53.1901 156.58 53.5078C156.798 53.8203 156.908 54.2031 156.908 54.6562C156.908 55.4115 156.606 56.0182 156.002 56.4766C155.397 56.9297 154.614 57.1562 153.65 57.1562C152.973 57.1562 152.374 57.0365 151.853 56.7969C151.332 56.5573 150.923 56.224 150.627 55.7969C150.335 55.3646 150.189 54.8984 150.189 54.3984H151.634C151.66 54.8828 151.853 55.2682 152.213 55.5547C152.577 55.8359 153.056 55.9766 153.65 55.9766C154.197 55.9766 154.634 55.8672 154.963 55.6484C155.296 55.4245 155.463 55.1276 155.463 54.7578Z" fill="black" fill-opacity="0.6"/>
<path fill-rule="evenodd" clip-rule="evenodd" d="M2 43H16C17.11 43 18 43.9 18 45V59C18 60.1 17.11 61 16 61H2C0.89 61 0 60.1 0 59V45C0 43.9 0.89 43 2 43ZM2 52.2015L7 57L16 48.3628L14.59 47L7 54.2841L3.41 50.8484L2 52.2015Z" fill="#1665D8"/>
<mask id="mask1" mask-type="alpha" maskUnits="userSpaceOnUse" x="0" y="43" width="18" height="18">
<path fill-rule="evenodd" clip-rule="evenodd" d="M2 43H16C17.11 43 18 43.9 18 45V59C18 60.1 17.11 61 16 61H2C0.89 61 0 60.1 0 59V45C0 43.9 0.89 43 2 43ZM2 52.2015L7 57L16 48.3628L14.59 47L7 54.2841L3.41 50.8484L2 52.2015Z" fill="white"/>
</mask>
<g mask="url(#mask1)">
</g>
<path d="M36.1797 102.859H32.5234V113H31.0312V102.859H27.3828V101.625H36.1797V102.859ZM40.5172 113.156C39.3714 113.156 38.4391 112.781 37.7203 112.031C37.0016 111.276 36.6422 110.268 36.6422 109.008V108.742C36.6422 107.904 36.801 107.156 37.1187 106.5C37.4417 105.839 37.8896 105.323 38.4625 104.953C39.0406 104.578 39.6656 104.391 40.3375 104.391C41.4365 104.391 42.2906 104.753 42.9 105.477C43.5094 106.201 43.8141 107.237 43.8141 108.586V109.188H38.0875C38.1083 110.021 38.3505 110.695 38.8141 111.211C39.2828 111.721 39.8766 111.977 40.5953 111.977C41.1057 111.977 41.538 111.872 41.8922 111.664C42.2464 111.456 42.5562 111.18 42.8219 110.836L43.7047 111.523C42.9964 112.612 41.9339 113.156 40.5172 113.156ZM40.3375 105.578C39.7542 105.578 39.2646 105.792 38.8687 106.219C38.4729 106.641 38.2281 107.234 38.1344 108H42.3687V107.891C42.3271 107.156 42.1292 106.589 41.775 106.188C41.4208 105.781 40.9417 105.578 40.3375 105.578ZM48.4797 107.633L50.3547 104.547H52.0422L49.2766 108.727L52.1281 113H50.4562L48.5031 109.836L46.55 113H44.8703L47.7219 108.727L44.9562 104.547H46.6281L48.4797 107.633ZM55.6922 102.5V104.547H57.2703V105.664H55.6922V110.906C55.6922 111.245 55.7625 111.5 55.9031 111.672C56.0438 111.839 56.2833 111.922 56.6219 111.922C56.7885 111.922 57.0177 111.891 57.3094 111.828V113C56.9292 113.104 56.5594 113.156 56.2 113.156C55.5542 113.156 55.0672 112.961 54.7391 112.57C54.4109 112.18 54.2469 111.625 54.2469 110.906V105.664H52.7078V104.547H54.2469V102.5H55.6922ZM65.3984 101.625L69.1172 110.906L72.8359 101.625H74.7812V113H73.2812V108.57L73.4219 103.789L69.6875 113H68.5391L64.8125 103.812L64.9609 108.57V113H63.4609V101.625H65.3984ZM80.8609 113.156C79.7151 113.156 78.7828 112.781 78.0641 112.031C77.3453 111.276 76.9859 110.268 76.9859 109.008V108.742C76.9859 107.904 77.1448 107.156 77.4625 106.5C77.7854 105.839 78.2333 105.323 78.8063 104.953C79.3844 104.578 80.0094 104.391 80.6813 104.391C81.7802 104.391 82.6344 104.753 83.2438 105.477C83.8531 106.201 84.1578 107.237 84.1578 108.586V109.188H78.4313C78.4521 110.021 78.6943 110.695 79.1578 111.211C79.6266 111.721 80.2203 111.977 80.9391 111.977C81.4495 111.977 81.8818 111.872 82.2359 111.664C82.5901 111.456 82.9 111.18 83.1656 110.836L84.0484 111.523C83.3401 112.612 82.2776 113.156 80.8609 113.156ZM80.6813 105.578C80.0979 105.578 79.6083 105.792 79.2125 106.219C78.8167 106.641 78.5719 107.234 78.4781 108H82.7125V107.891C82.6708 107.156 82.4729 106.589 82.1188 106.188C81.7646 105.781 81.2854 105.578 80.6813 105.578ZM90.9094 110.758C90.9094 110.367 90.7609 110.065 90.4641 109.852C90.1724 109.633 89.6594 109.445 88.925 109.289C88.1958 109.133 87.6151 108.945 87.1828 108.727C86.7557 108.508 86.438 108.247 86.2297 107.945C86.0266 107.643 85.925 107.284 85.925 106.867C85.925 106.174 86.2167 105.589 86.8 105.109C87.3885 104.63 88.1385 104.391 89.05 104.391C90.0083 104.391 90.7844 104.638 91.3781 105.133C91.9771 105.628 92.2766 106.26 92.2766 107.031H90.8234C90.8234 106.635 90.6542 106.294 90.3156 106.008C89.9823 105.721 89.5604 105.578 89.05 105.578C88.524 105.578 88.1125 105.693 87.8156 105.922C87.5187 106.151 87.3703 106.451 87.3703 106.82C87.3703 107.169 87.5083 107.432 87.7844 107.609C88.0604 107.786 88.5578 107.956 89.2766 108.117C90.0005 108.279 90.5865 108.471 91.0344 108.695C91.4823 108.919 91.813 109.19 92.0266 109.508C92.2453 109.82 92.3547 110.203 92.3547 110.656C92.3547 111.411 92.0526 112.018 91.4484 112.477C90.8443 112.93 90.0604 113.156 89.0969 113.156C88.4198 113.156 87.8208 113.036 87.3 112.797C86.7792 112.557 86.3703 112.224 86.0734 111.797C85.7818 111.365 85.6359 110.898 85.6359 110.398H87.0812C87.1073 110.883 87.3 111.268 87.6594 111.555C88.024 111.836 88.5031 111.977 89.0969 111.977C89.6437 111.977 90.0812 111.867 90.4094 111.648C90.7427 111.424 90.9094 111.128 90.9094 110.758ZM99.3094 110.758C99.3094 110.367 99.1609 110.065 98.8641 109.852C98.5724 109.633 98.0594 109.445 97.325 109.289C96.5958 109.133 96.0151 108.945 95.5828 108.727C95.1557 108.508 94.838 108.247 94.6297 107.945C94.4266 107.643 94.325 107.284 94.325 106.867C94.325 106.174 94.6167 105.589 95.2 105.109C95.7885 104.63 96.5385 104.391 97.45 104.391C98.4083 104.391 99.1844 104.638 99.7781 105.133C100.377 105.628 100.677 106.26 100.677 107.031H99.2234C99.2234 106.635 99.0542 106.294 98.7156 106.008C98.3823 105.721 97.9604 105.578 97.45 105.578C96.924 105.578 96.5125 105.693 96.2156 105.922C95.9187 106.151 95.7703 106.451 95.7703 106.82C95.7703 107.169 95.9083 107.432 96.1844 107.609C96.4604 107.786 96.9578 107.956 97.6766 108.117C98.4005 108.279 98.9865 108.471 99.4344 108.695C99.8823 108.919 100.213 109.19 100.427 109.508C100.645 109.82 100.755 110.203 100.755 110.656C100.755 111.411 100.453 112.018 99.8484 112.477C99.2443 112.93 98.4604 113.156 97.4969 113.156C96.8198 113.156 96.2208 113.036 95.7 112.797C95.1792 112.557 94.7703 112.224 94.4734 111.797C94.1818 111.365 94.0359 110.898 94.0359 110.398H95.4812C95.5073 110.883 95.7 111.268 96.0594 111.555C96.424 111.836 96.9031 111.977 97.4969 111.977C98.0437 111.977 98.4812 111.867 98.8094 111.648C99.1427 111.424 99.3094 111.128 99.3094 110.758ZM108.006 113C107.923 112.833 107.855 112.536 107.803 112.109C107.131 112.807 106.329 113.156 105.397 113.156C104.564 113.156 103.879 112.922 103.342 112.453C102.811 111.979 102.545 111.38 102.545 110.656C102.545 109.776 102.879 109.094 103.545 108.609C104.217 108.12 105.16 107.875 106.373 107.875H107.78V107.211C107.78 106.706 107.629 106.305 107.327 106.008C107.024 105.706 106.579 105.555 105.991 105.555C105.475 105.555 105.043 105.685 104.694 105.945C104.345 106.206 104.17 106.521 104.17 106.891H102.717C102.717 106.469 102.866 106.062 103.162 105.672C103.465 105.276 103.871 104.964 104.381 104.734C104.897 104.505 105.462 104.391 106.077 104.391C107.051 104.391 107.814 104.635 108.366 105.125C108.918 105.609 109.204 106.279 109.225 107.133V111.023C109.225 111.799 109.324 112.417 109.522 112.875V113H108.006ZM105.608 111.898C106.061 111.898 106.491 111.781 106.897 111.547C107.303 111.312 107.597 111.008 107.78 110.633V108.898H106.647C104.876 108.898 103.991 109.417 103.991 110.453C103.991 110.906 104.142 111.26 104.444 111.516C104.746 111.771 105.134 111.898 105.608 111.898ZM111.297 108.703C111.297 107.385 111.602 106.339 112.211 105.562C112.82 104.781 113.628 104.391 114.633 104.391C115.664 104.391 116.469 104.755 117.047 105.484L117.117 104.547H118.438V112.797C118.438 113.891 118.112 114.753 117.461 115.383C116.815 116.013 115.945 116.328 114.852 116.328C114.242 116.328 113.646 116.198 113.062 115.938C112.479 115.677 112.034 115.32 111.727 114.867L112.477 114C113.096 114.766 113.854 115.148 114.75 115.148C115.453 115.148 116 114.951 116.391 114.555C116.786 114.159 116.984 113.602 116.984 112.883V112.156C116.406 112.823 115.617 113.156 114.617 113.156C113.628 113.156 112.826 112.758 112.211 111.961C111.602 111.164 111.297 110.078 111.297 108.703ZM112.75 108.867C112.75 109.82 112.945 110.57 113.336 111.117C113.727 111.659 114.273 111.93 114.977 111.93C115.888 111.93 116.557 111.516 116.984 110.688V106.828C116.542 106.021 115.878 105.617 114.992 105.617C114.289 105.617 113.74 105.891 113.344 106.438C112.948 106.984 112.75 107.794 112.75 108.867ZM124.283 113.156C123.137 113.156 122.205 112.781 121.486 112.031C120.767 111.276 120.408 110.268 120.408 109.008V108.742C120.408 107.904 120.567 107.156 120.884 106.5C121.207 105.839 121.655 105.323 122.228 104.953C122.806 104.578 123.431 104.391 124.103 104.391C125.202 104.391 126.056 104.753 126.666 105.477C127.275 106.201 127.58 107.237 127.58 108.586V109.188H121.853C121.874 110.021 122.116 110.695 122.58 111.211C123.048 111.721 123.642 111.977 124.361 111.977C124.871 111.977 125.304 111.872 125.658 111.664C126.012 111.456 126.322 111.18 126.588 110.836L127.47 111.523C126.762 112.612 125.699 113.156 124.283 113.156ZM124.103 105.578C123.52 105.578 123.03 105.792 122.634 106.219C122.239 106.641 121.994 107.234 121.9 108H126.134V107.891C126.093 107.156 125.895 106.589 125.541 106.188C125.186 105.781 124.707 105.578 124.103 105.578ZM134.331 110.758C134.331 110.367 134.183 110.065 133.886 109.852C133.594 109.633 133.081 109.445 132.347 109.289C131.618 109.133 131.037 108.945 130.605 108.727C130.178 108.508 129.86 108.247 129.652 107.945C129.448 107.643 129.347 107.284 129.347 106.867C129.347 106.174 129.639 105.589 130.222 105.109C130.81 104.63 131.56 104.391 132.472 104.391C133.43 104.391 134.206 104.638 134.8 105.133C135.399 105.628 135.698 106.26 135.698 107.031H134.245C134.245 106.635 134.076 106.294 133.738 106.008C133.404 105.721 132.982 105.578 132.472 105.578C131.946 105.578 131.534 105.693 131.238 105.922C130.941 106.151 130.792 106.451 130.792 106.82C130.792 107.169 130.93 107.432 131.206 107.609C131.482 107.786 131.98 107.956 132.698 108.117C133.422 108.279 134.008 108.471 134.456 108.695C134.904 108.919 135.235 109.19 135.448 109.508C135.667 109.82 135.777 110.203 135.777 110.656C135.777 111.411 135.474 112.018 134.87 112.477C134.266 112.93 133.482 113.156 132.519 113.156C131.842 113.156 131.243 113.036 130.722 112.797C130.201 112.557 129.792 112.224 129.495 111.797C129.204 111.365 129.058 110.898 129.058 110.398H130.503C130.529 110.883 130.722 111.268 131.081 111.555C131.446 111.836 131.925 111.977 132.519 111.977C133.066 111.977 133.503 111.867 133.831 111.648C134.165 111.424 134.331 111.128 134.331 110.758Z" fill="black" fill-opacity="0.6"/>
<path fill-rule="evenodd" clip-rule="evenodd" d="M2 99H16C17.11 99 18 99.9 18 101V115C18 116.1 17.11 117 16 117H2C0.89 117 0 116.1 0 115V101C0 99.9 0.89 99 2 99ZM2 108.202L7 113L16 104.363L14.59 103L7 110.284L3.41 106.848L2 108.202Z" fill="#1665D8"/>
<mask id="mask2" mask-type="alpha" maskUnits="userSpaceOnUse" x="0" y="99" width="18" height="18">
<path fill-rule="evenodd" clip-rule="evenodd" d="M2 99H16C17.11 99 18 99.9 18 101V115C18 116.1 17.11 117 16 117H2C0.89 117 0 116.1 0 115V101C0 99.9 0.89 99 2 99ZM2 108.202L7 113L16 104.363L14.59 103L7 110.284L3.41 106.848L2 108.202Z" fill="white"/>
</mask>
<g mask="url(#mask2)">
</g>
<path d="M29.8203 148.547V153H28.3203V141.625H32.5156C33.7604 141.625 34.7344 141.943 35.4375 142.578C36.1458 143.214 36.5 144.055 36.5 145.102C36.5 146.206 36.1536 147.057 35.4609 147.656C34.7734 148.25 33.7865 148.547 32.5 148.547H29.8203ZM29.8203 147.32H32.5156C33.3177 147.32 33.9323 147.133 34.3594 146.758C34.7865 146.378 35 145.831 35 145.117C35 144.44 34.7865 143.898 34.3594 143.492C33.9323 143.086 33.3464 142.875 32.6016 142.859H29.8203V147.32ZM39.7828 145.57C40.4234 144.784 41.2568 144.391 42.2828 144.391C44.0693 144.391 44.9703 145.398 44.9859 147.414V153H43.5406V147.406C43.5354 146.797 43.3948 146.346 43.1187 146.055C42.8479 145.763 42.4234 145.617 41.8453 145.617C41.3766 145.617 40.9651 145.742 40.6109 145.992C40.2568 146.242 39.9807 146.57 39.7828 146.977V153H38.3375V141H39.7828V145.57ZM46.9172 148.695C46.9172 147.867 47.0786 147.122 47.4016 146.461C47.7297 145.799 48.1828 145.289 48.7609 144.93C49.3443 144.57 50.0083 144.391 50.7531 144.391C51.9042 144.391 52.8339 144.789 53.5422 145.586C54.2557 146.383 54.6125 147.443 54.6125 148.766V148.867C54.6125 149.69 54.4536 150.43 54.1359 151.086C53.8234 151.737 53.3729 152.245 52.7844 152.609C52.201 152.974 51.5292 153.156 50.7687 153.156C49.6229 153.156 48.6932 152.758 47.9797 151.961C47.2714 151.164 46.9172 150.109 46.9172 148.797V148.695ZM48.3703 148.867C48.3703 149.805 48.5865 150.557 49.0187 151.125C49.4562 151.693 50.0396 151.977 50.7687 151.977C51.5031 151.977 52.0865 151.69 52.5187 151.117C52.951 150.539 53.1672 149.732 53.1672 148.695C53.1672 147.768 52.9458 147.018 52.5031 146.445C52.0656 145.867 51.4823 145.578 50.7531 145.578C50.0396 145.578 49.4641 145.862 49.0266 146.43C48.5891 146.997 48.3703 147.81 48.3703 148.867ZM57.9422 144.547L57.9891 145.609C58.6349 144.797 59.4786 144.391 60.5203 144.391C62.3068 144.391 63.2078 145.398 63.2234 147.414V153H61.7781V147.406C61.7729 146.797 61.6323 146.346 61.3563 146.055C61.0854 145.763 60.6609 145.617 60.0828 145.617C59.6141 145.617 59.2026 145.742 58.8484 145.992C58.4943 146.242 58.2182 146.57 58.0203 146.977V153H56.575V144.547H57.9422ZM69.0609 153.156C67.9151 153.156 66.9828 152.781 66.2641 152.031C65.5453 151.276 65.1859 150.268 65.1859 149.008V148.742C65.1859 147.904 65.3448 147.156 65.6625 146.5C65.9854 145.839 66.4333 145.323 67.0062 144.953C67.5844 144.578 68.2094 144.391 68.8812 144.391C69.9802 144.391 70.8344 144.753 71.4437 145.477C72.0531 146.201 72.3578 147.237 72.3578 148.586V149.188H66.6312C66.6521 150.021 66.8943 150.695 67.3578 151.211C67.8266 151.721 68.4203 151.977 69.1391 151.977C69.6495 151.977 70.0818 151.872 70.4359 151.664C70.7901 151.456 71.1 151.18 71.3656 150.836L72.2484 151.523C71.5401 152.612 70.4776 153.156 69.0609 153.156ZM68.8812 145.578C68.2979 145.578 67.8083 145.792 67.4125 146.219C67.0167 146.641 66.7719 147.234 66.6781 148H70.9125V147.891C70.8708 147.156 70.6729 146.589 70.3187 146.188C69.9646 145.781 69.4854 145.578 68.8812 145.578ZM86.9 149.391C86.7594 150.594 86.3141 151.523 85.5641 152.18C84.8193 152.831 83.8271 153.156 82.5875 153.156C81.2438 153.156 80.1656 152.674 79.3531 151.711C78.5458 150.747 78.1422 149.458 78.1422 147.844V146.75C78.1422 145.693 78.3297 144.763 78.7047 143.961C79.0849 143.159 79.6214 142.544 80.3141 142.117C81.0068 141.685 81.8089 141.469 82.7203 141.469C83.9286 141.469 84.8974 141.807 85.6266 142.484C86.3557 143.156 86.7802 144.089 86.9 145.281H85.3922C85.262 144.375 84.9781 143.719 84.5406 143.312C84.1083 142.906 83.5016 142.703 82.7203 142.703C81.762 142.703 81.0094 143.057 80.4625 143.766C79.9208 144.474 79.65 145.482 79.65 146.789V147.891C79.65 149.125 79.9078 150.107 80.4234 150.836C80.9391 151.565 81.6604 151.93 82.5875 151.93C83.4208 151.93 84.0589 151.742 84.5016 151.367C84.9495 150.987 85.2464 150.328 85.3922 149.391H86.9ZM94.0969 153C94.0135 152.833 93.9458 152.536 93.8937 152.109C93.2219 152.807 92.4198 153.156 91.4875 153.156C90.6542 153.156 89.9693 152.922 89.4328 152.453C88.9016 151.979 88.6359 151.38 88.6359 150.656C88.6359 149.776 88.9693 149.094 89.6359 148.609C90.3078 148.12 91.2505 147.875 92.4641 147.875H93.8703V147.211C93.8703 146.706 93.7193 146.305 93.4172 146.008C93.1151 145.706 92.6698 145.555 92.0812 145.555C91.5656 145.555 91.1333 145.685 90.7844 145.945C90.4354 146.206 90.2609 146.521 90.2609 146.891H88.8078C88.8078 146.469 88.9562 146.062 89.2531 145.672C89.5552 145.276 89.9615 144.964 90.4719 144.734C90.9875 144.505 91.5526 144.391 92.1672 144.391C93.1411 144.391 93.9042 144.635 94.4562 145.125C95.0083 145.609 95.2948 146.279 95.3156 147.133V151.023C95.3156 151.799 95.4146 152.417 95.6125 152.875V153H94.0969ZM91.6984 151.898C92.1516 151.898 92.5812 151.781 92.9875 151.547C93.3937 151.312 93.688 151.008 93.8703 150.633V148.898H92.7375C90.9667 148.898 90.0812 149.417 90.0812 150.453C90.0812 150.906 90.2323 151.26 90.5344 151.516C90.8365 151.771 91.2245 151.898 91.6984 151.898ZM99.3016 153H97.8562V141H99.3016V153ZM103.342 153H101.897V141H103.342V153ZM110.734 150.758C110.734 150.367 110.586 150.065 110.289 149.852C109.997 149.633 109.484 149.445 108.75 149.289C108.021 149.133 107.44 148.945 107.008 148.727C106.581 148.508 106.263 148.247 106.055 147.945C105.852 147.643 105.75 147.284 105.75 146.867C105.75 146.174 106.042 145.589 106.625 145.109C107.214 144.63 107.964 144.391 108.875 144.391C109.833 144.391 110.609 144.638 111.203 145.133C111.802 145.628 112.102 146.26 112.102 147.031H110.648C110.648 146.635 110.479 146.294 110.141 146.008C109.807 145.721 109.385 145.578 108.875 145.578C108.349 145.578 107.938 145.693 107.641 145.922C107.344 146.151 107.195 146.451 107.195 146.82C107.195 147.169 107.333 147.432 107.609 147.609C107.885 147.786 108.383 147.956 109.102 148.117C109.826 148.279 110.411 148.471 110.859 148.695C111.307 148.919 111.638 149.19 111.852 149.508C112.07 149.82 112.18 150.203 112.18 150.656C112.18 151.411 111.878 152.018 111.273 152.477C110.669 152.93 109.885 153.156 108.922 153.156C108.245 153.156 107.646 153.036 107.125 152.797C106.604 152.557 106.195 152.224 105.898 151.797C105.607 151.365 105.461 150.898 105.461 150.398H106.906C106.932 150.883 107.125 151.268 107.484 151.555C107.849 151.836 108.328 151.977 108.922 151.977C109.469 151.977 109.906 151.867 110.234 151.648C110.568 151.424 110.734 151.128 110.734 150.758Z" fill="black" fill-opacity="0.6"/>
<path fill-rule="evenodd" clip-rule="evenodd" d="M2 139H16C17.11 139 18 139.9 18 141V155C18 156.1 17.11 157 16 157H2C0.89 157 0 156.1 0 155V141C0 139.9 0.89 139 2 139ZM2 148.202L7 153L16 144.363L14.59 143L7 150.284L3.41 146.848L2 148.202Z" fill="#1665D8"/>
<mask id="mask3" mask-type="alpha" maskUnits="userSpaceOnUse" x="0" y="139" width="18" height="18">
<path fill-rule="evenodd" clip-rule="evenodd" d="M2 139H16C17.11 139 18 139.9 18 141V155C18 156.1 17.11 157 16 157H2C0.89 157 0 156.1 0 155V141C0 139.9 0.89 139 2 139ZM2 148.202L7 153L16 144.363L14.59 143L7 150.284L3.41 146.848L2 148.202Z" fill="white"/>
</mask>
<g mask="url(#mask3)">
</g>
<path d="M32.6953 73.2324H29.1152V77H27.9902V68.4688H33.2754V69.3945H29.1152V72.3125H32.6953V73.2324ZM34.0371 73.7715C34.0371 73.1504 34.1582 72.5918 34.4004 72.0957C34.6465 71.5996 34.9863 71.2168 35.4199 70.9473C35.8574 70.6777 36.3555 70.543 36.9141 70.543C37.7773 70.543 38.4746 70.8418 39.0059 71.4395C39.541 72.0371 39.8086 72.832 39.8086 73.8242V73.9004C39.8086 74.5176 39.6895 75.0723 39.4512 75.5645C39.2168 76.0527 38.8789 76.4336 38.4375 76.707C38 76.9805 37.4961 77.1172 36.9258 77.1172C36.0664 77.1172 35.3691 76.8184 34.834 76.2207C34.3027 75.623 34.0371 74.832 34.0371 73.8477V73.7715ZM35.127 73.9004C35.127 74.6035 35.2891 75.168 35.6133 75.5938C35.9414 76.0195 36.3789 76.2324 36.9258 76.2324C37.4766 76.2324 37.9141 76.0176 38.2383 75.5879C38.5625 75.1543 38.7246 74.5488 38.7246 73.7715C38.7246 73.0762 38.5586 72.5137 38.2266 72.084C37.8984 71.6504 37.4609 71.4336 36.9141 71.4336C36.3789 71.4336 35.9473 71.6465 35.6191 72.0723C35.291 72.498 35.127 73.1074 35.127 73.9004ZM44.2324 71.6328C44.0684 71.6055 43.8906 71.5918 43.6992 71.5918C42.9883 71.5918 42.5059 71.8945 42.252 72.5V77H41.168V70.6602H42.2227L42.2402 71.3926C42.5957 70.8262 43.0996 70.543 43.752 70.543C43.9629 70.543 44.123 70.5703 44.2324 70.625V71.6328ZM50.2852 75.4121L51.7617 70.6602H52.9219L50.373 77.9785C49.9785 79.0332 49.3516 79.5605 48.4922 79.5605L48.2871 79.543L47.8828 79.4668V78.5879L48.1758 78.6113C48.543 78.6113 48.8281 78.5371 49.0312 78.3887C49.2383 78.2402 49.4082 77.9688 49.541 77.5742L49.7812 76.9297L47.5195 70.6602H48.7031L50.2852 75.4121ZM53.5137 73.7715C53.5137 73.1504 53.6348 72.5918 53.877 72.0957C54.123 71.5996 54.4629 71.2168 54.8965 70.9473C55.334 70.6777 55.832 70.543 56.3906 70.543C57.2539 70.543 57.9512 70.8418 58.4824 71.4395C59.0176 72.0371 59.2852 72.832 59.2852 73.8242V73.9004C59.2852 74.5176 59.166 75.0723 58.9277 75.5645C58.6934 76.0527 58.3555 76.4336 57.9141 76.707C57.4766 76.9805 56.9727 77.1172 56.4023 77.1172C55.543 77.1172 54.8457 76.8184 54.3105 76.2207C53.7793 75.623 53.5137 74.832 53.5137 73.8477V73.7715ZM54.6035 73.9004C54.6035 74.6035 54.7656 75.168 55.0898 75.5938C55.418 76.0195 55.8555 76.2324 56.4023 76.2324C56.9531 76.2324 57.3906 76.0176 57.7148 75.5879C58.0391 75.1543 58.2012 74.5488 58.2012 73.7715C58.2012 73.0762 58.0352 72.5137 57.7031 72.084C57.375 71.6504 56.9375 71.4336 56.3906 71.4336C55.8555 71.4336 55.4238 71.6465 55.0957 72.0723C54.7676 72.498 54.6035 73.1074 54.6035 73.9004ZM64.5586 76.373C64.1367 76.8691 63.5176 77.1172 62.7012 77.1172C62.0254 77.1172 61.5098 76.9219 61.1543 76.5312C60.8027 76.1367 60.625 75.5547 60.6211 74.7852V70.6602H61.7051V74.7559C61.7051 75.7168 62.0957 76.1973 62.877 76.1973C63.7051 76.1973 64.2559 75.8887 64.5293 75.2715V70.6602H65.6133V77H64.582L64.5586 76.373ZM70.3301 71.6328C70.166 71.6055 69.9883 71.5918 69.7969 71.5918C69.0859 71.5918 68.6035 71.8945 68.3496 72.5V77H67.2656V70.6602H68.3203L68.3379 71.3926C68.6934 70.8262 69.1973 70.543 69.8496 70.543C70.0605 70.543 70.2207 70.5703 70.3301 70.625V71.6328ZM75.3281 70.6602L75.3574 71.3633C75.8223 70.8164 76.4492 70.543 77.2383 70.543C78.125 70.543 78.7285 70.8828 79.0488 71.5625C79.2598 71.2578 79.5332 71.0117 79.8691 70.8242C80.209 70.6367 80.6094 70.543 81.0703 70.543C82.4609 70.543 83.168 71.2793 83.1914 72.752V77H82.1074V72.8164C82.1074 72.3633 82.0039 72.0254 81.7969 71.8027C81.5898 71.5762 81.2422 71.4629 80.7539 71.4629C80.3516 71.4629 80.0176 71.584 79.752 71.8262C79.4863 72.0645 79.332 72.3867 79.2891 72.793V77H78.1992V72.8457C78.1992 71.9238 77.748 71.4629 76.8457 71.4629C76.1348 71.4629 75.6484 71.7656 75.3867 72.3711V77H74.3027V70.6602H75.3281ZM84.5449 73.7715C84.5449 73.1504 84.666 72.5918 84.9082 72.0957C85.1543 71.5996 85.4941 71.2168 85.9277 70.9473C86.3652 70.6777 86.8633 70.543 87.4219 70.543C88.2852 70.543 88.9824 70.8418 89.5137 71.4395C90.0488 72.0371 90.3164 72.832 90.3164 73.8242V73.9004C90.3164 74.5176 90.1973 75.0723 89.959 75.5645C89.7246 76.0527 89.3867 76.4336 88.9453 76.707C88.5078 76.9805 88.0039 77.1172 87.4336 77.1172C86.5742 77.1172 85.877 76.8184 85.3418 76.2207C84.8105 75.623 84.5449 74.832 84.5449 73.8477V73.7715ZM85.6348 73.9004C85.6348 74.6035 85.7969 75.168 86.1211 75.5938C86.4492 76.0195 86.8867 76.2324 87.4336 76.2324C87.9844 76.2324 88.4219 76.0176 88.7461 75.5879C89.0703 75.1543 89.2324 74.5488 89.2324 73.7715C89.2324 73.0762 89.0664 72.5137 88.7344 72.084C88.4062 71.6504 87.9688 71.4336 87.4219 71.4336C86.8867 71.4336 86.4551 71.6465 86.127 72.0723C85.7988 72.498 85.6348 73.1074 85.6348 73.9004ZM97.043 73.9004C97.043 74.8691 96.8203 75.6484 96.375 76.2383C95.9297 76.8242 95.332 77.1172 94.582 77.1172C93.7812 77.1172 93.1621 76.834 92.7246 76.2676L92.6719 77H91.6758V68H92.7598V71.3574C93.1973 70.8145 93.8008 70.543 94.5703 70.543C95.3398 70.543 95.9434 70.834 96.3809 71.416C96.8223 71.998 97.043 72.7949 97.043 73.8066V73.9004ZM95.959 73.7773C95.959 73.0391 95.8164 72.4688 95.5312 72.0664C95.2461 71.6641 94.8359 71.4629 94.3008 71.4629C93.5859 71.4629 93.0723 71.7949 92.7598 72.459V75.2012C93.0918 75.8652 93.6094 76.1973 94.3125 76.1973C94.832 76.1973 95.2363 75.9961 95.5254 75.5938C95.8145 75.1914 95.959 74.5859 95.959 73.7773ZM99.5918 77H98.5078V70.6602H99.5918V77ZM98.4199 68.9785C98.4199 68.8027 98.4727 68.6543 98.5781 68.5332C98.6875 68.4121 98.8477 68.3516 99.0586 68.3516C99.2695 68.3516 99.4297 68.4121 99.5391 68.5332C99.6484 68.6543 99.7031 68.8027 99.7031 68.9785C99.7031 69.1543 99.6484 69.3008 99.5391 69.418C99.4297 69.5352 99.2695 69.5938 99.0586 69.5938C98.8477 69.5938 98.6875 69.5352 98.5781 69.418C98.4727 69.3008 98.4199 69.1543 98.4199 68.9785ZM102.51 77H101.426V68H102.51V77ZM106.881 77.1172C106.021 77.1172 105.322 76.8359 104.783 76.2734C104.244 75.707 103.975 74.9512 103.975 74.0059V73.8066C103.975 73.1777 104.094 72.6172 104.332 72.125C104.574 71.6289 104.91 71.2422 105.34 70.9648C105.773 70.6836 106.242 70.543 106.746 70.543C107.57 70.543 108.211 70.8145 108.668 71.3574C109.125 71.9004 109.354 72.6777 109.354 73.6895V74.1406H105.059C105.074 74.7656 105.256 75.2715 105.604 75.6582C105.955 76.041 106.4 76.2324 106.939 76.2324C107.322 76.2324 107.646 76.1543 107.912 75.998C108.178 75.8418 108.41 75.6348 108.609 75.377L109.271 75.8926C108.74 76.709 107.943 77.1172 106.881 77.1172ZM106.746 71.4336C106.309 71.4336 105.941 71.5938 105.645 71.9141C105.348 72.2305 105.164 72.6758 105.094 73.25H108.27V73.168C108.238 72.6172 108.09 72.1914 107.824 71.8906C107.559 71.5859 107.199 71.4336 106.746 71.4336ZM113.303 73.7715C113.303 73.1504 113.424 72.5918 113.666 72.0957C113.912 71.5996 114.252 71.2168 114.686 70.9473C115.123 70.6777 115.621 70.543 116.18 70.543C117.043 70.543 117.74 70.8418 118.271 71.4395C118.807 72.0371 119.074 72.832 119.074 73.8242V73.9004C119.074 74.5176 118.955 75.0723 118.717 75.5645C118.482 76.0527 118.145 76.4336 117.703 76.707C117.266 76.9805 116.762 77.1172 116.191 77.1172C115.332 77.1172 114.635 76.8184 114.1 76.2207C113.568 75.623 113.303 74.832 113.303 73.8477V73.7715ZM114.393 73.9004C114.393 74.6035 114.555 75.168 114.879 75.5938C115.207 76.0195 115.645 76.2324 116.191 76.2324C116.742 76.2324 117.18 76.0176 117.504 75.5879C117.828 75.1543 117.99 74.5488 117.99 73.7715C117.99 73.0762 117.824 72.5137 117.492 72.084C117.164 71.6504 116.727 71.4336 116.18 71.4336C115.645 71.4336 115.213 71.6465 114.885 72.0723C114.557 72.498 114.393 73.1074 114.393 73.9004ZM123.498 71.6328C123.334 71.6055 123.156 71.5918 122.965 71.5918C122.254 71.5918 121.771 71.8945 121.518 72.5V77H120.434V70.6602H121.488L121.506 71.3926C121.861 70.8262 122.365 70.543 123.018 70.543C123.229 70.543 123.389 70.5703 123.498 70.625V71.6328ZM128.947 69.125V70.6602H130.131V71.498H128.947V75.4297C128.947 75.6836 129 75.875 129.105 76.0039C129.211 76.1289 129.391 76.1914 129.645 76.1914C129.77 76.1914 129.941 76.168 130.16 76.1211V77C129.875 77.0781 129.598 77.1172 129.328 77.1172C128.844 77.1172 128.479 76.9707 128.232 76.6777C127.986 76.3848 127.863 75.9688 127.863 75.4297V71.498H126.709V70.6602H127.863V69.125H128.947ZM135.316 77C135.254 76.875 135.203 76.6523 135.164 76.332C134.66 76.8555 134.059 77.1172 133.359 77.1172C132.734 77.1172 132.221 76.9414 131.818 76.5898C131.42 76.2344 131.221 75.7852 131.221 75.2422C131.221 74.582 131.471 74.0703 131.971 73.707C132.475 73.3398 133.182 73.1562 134.092 73.1562H135.146V72.6582C135.146 72.2793 135.033 71.9785 134.807 71.7559C134.58 71.5293 134.246 71.416 133.805 71.416C133.418 71.416 133.094 71.5137 132.832 71.709C132.57 71.9043 132.439 72.1406 132.439 72.418H131.35C131.35 72.1016 131.461 71.7969 131.684 71.5039C131.91 71.207 132.215 70.9727 132.598 70.8008C132.984 70.6289 133.408 70.543 133.869 70.543C134.6 70.543 135.172 70.7266 135.586 71.0938C136 71.457 136.215 71.959 136.23 72.5996V75.5176C136.23 76.0996 136.305 76.5625 136.453 76.9062V77H135.316ZM133.518 76.1738C133.857 76.1738 134.18 76.0859 134.484 75.9102C134.789 75.7344 135.01 75.5059 135.146 75.2246V73.9238H134.297C132.969 73.9238 132.305 74.3125 132.305 75.0898C132.305 75.4297 132.418 75.6953 132.645 75.8867C132.871 76.0781 133.162 76.1738 133.518 76.1738ZM143.297 73.9004C143.297 74.8691 143.074 75.6484 142.629 76.2383C142.184 76.8242 141.586 77.1172 140.836 77.1172C140.035 77.1172 139.416 76.834 138.979 76.2676L138.926 77H137.93V68H139.014V71.3574C139.451 70.8145 140.055 70.543 140.824 70.543C141.594 70.543 142.197 70.834 142.635 71.416C143.076 71.998 143.297 72.7949 143.297 73.8066V73.9004ZM142.213 73.7773C142.213 73.0391 142.07 72.4688 141.785 72.0664C141.5 71.6641 141.09 71.4629 140.555 71.4629C139.84 71.4629 139.326 71.7949 139.014 72.459V75.2012C139.346 75.8652 139.863 76.1973 140.566 76.1973C141.086 76.1973 141.49 75.9961 141.779 75.5938C142.068 75.1914 142.213 74.5859 142.213 73.7773ZM145.846 77H144.762V68H145.846V77ZM150.217 77.1172C149.357 77.1172 148.658 76.8359 148.119 76.2734C147.58 75.707 147.311 74.9512 147.311 74.0059V73.8066C147.311 73.1777 147.43 72.6172 147.668 72.125C147.91 71.6289 148.246 71.2422 148.676 70.9648C149.109 70.6836 149.578 70.543 150.082 70.543C150.906 70.543 151.547 70.8145 152.004 71.3574C152.461 71.9004 152.689 72.6777 152.689 73.6895V74.1406H148.395C148.41 74.7656 148.592 75.2715 148.939 75.6582C149.291 76.041 149.736 76.2324 150.275 76.2324C150.658 76.2324 150.982 76.1543 151.248 75.998C151.514 75.8418 151.746 75.6348 151.945 75.377L152.607 75.8926C152.076 76.709 151.279 77.1172 150.217 77.1172ZM150.082 71.4336C149.645 71.4336 149.277 71.5938 148.98 71.9141C148.684 72.2305 148.5 72.6758 148.43 73.25H151.605V73.168C151.574 72.6172 151.426 72.1914 151.16 71.8906C150.895 71.5859 150.535 71.4336 150.082 71.4336ZM155.42 69.125V70.6602H156.604V71.498H155.42V75.4297C155.42 75.6836 155.473 75.875 155.578 76.0039C155.684 76.1289 155.863 76.1914 156.117 76.1914C156.242 76.1914 156.414 76.168 156.633 76.1211V77C156.348 77.0781 156.07 77.1172 155.801 77.1172C155.316 77.1172 154.951 76.9707 154.705 76.6777C154.459 76.3848 154.336 75.9688 154.336 75.4297V71.498H153.182V70.6602H154.336V69.125H155.42ZM160.588 73.7773C160.588 72.8047 160.818 72.0234 161.279 71.4336C161.74 70.8398 162.344 70.543 163.09 70.543C163.832 70.543 164.42 70.7969 164.854 71.3047V68H165.938V77H164.941L164.889 76.3203C164.455 76.8516 163.852 77.1172 163.078 77.1172C162.344 77.1172 161.744 76.8164 161.279 76.2148C160.818 75.6133 160.588 74.8281 160.588 73.8594V73.7773ZM161.672 73.9004C161.672 74.6191 161.82 75.1816 162.117 75.5879C162.414 75.9941 162.824 76.1973 163.348 76.1973C164.035 76.1973 164.537 75.8887 164.854 75.2715V72.3594C164.529 71.7617 164.031 71.4629 163.359 71.4629C162.828 71.4629 162.414 71.668 162.117 72.0781C161.82 72.4883 161.672 73.0957 161.672 73.9004ZM170.256 77.1172C169.396 77.1172 168.697 76.8359 168.158 76.2734C167.619 75.707 167.35 74.9512 167.35 74.0059V73.8066C167.35 73.1777 167.469 72.6172 167.707 72.125C167.949 71.6289 168.285 71.2422 168.715 70.9648C169.148 70.6836 169.617 70.543 170.121 70.543C170.945 70.543 171.586 70.8145 172.043 71.3574C172.5 71.9004 172.729 72.6777 172.729 73.6895V74.1406H168.434C168.449 74.7656 168.631 75.2715 168.979 75.6582C169.33 76.041 169.775 76.2324 170.314 76.2324C170.697 76.2324 171.021 76.1543 171.287 75.998C171.553 75.8418 171.785 75.6348 171.984 75.377L172.646 75.8926C172.115 76.709 171.318 77.1172 170.256 77.1172ZM170.121 71.4336C169.684 71.4336 169.316 71.5938 169.02 71.9141C168.723 72.2305 168.539 72.6758 168.469 73.25H171.645V73.168C171.613 72.6172 171.465 72.1914 171.199 71.8906C170.934 71.5859 170.574 71.4336 170.121 71.4336ZM175.998 75.5293L177.568 70.6602H178.676L176.402 77H175.576L173.279 70.6602H174.387L175.998 75.5293ZM180.896 77H179.812V70.6602H180.896V77ZM179.725 68.9785C179.725 68.8027 179.777 68.6543 179.883 68.5332C179.992 68.4121 180.152 68.3516 180.363 68.3516C180.574 68.3516 180.734 68.4121 180.844 68.5332C180.953 68.6543 181.008 68.8027 181.008 68.9785C181.008 69.1543 180.953 69.3008 180.844 69.418C180.734 69.5352 180.574 69.5938 180.363 69.5938C180.152 69.5938 179.992 69.5352 179.883 69.418C179.777 69.3008 179.725 69.1543 179.725 68.9785ZM185.18 76.2324C185.566 76.2324 185.904 76.1152 186.193 75.8809C186.482 75.6465 186.643 75.3535 186.674 75.002H187.699C187.68 75.3652 187.555 75.7109 187.324 76.0391C187.094 76.3672 186.785 76.6289 186.398 76.8242C186.016 77.0195 185.609 77.1172 185.18 77.1172C184.316 77.1172 183.629 76.8301 183.117 76.2559C182.609 75.6777 182.355 74.8887 182.355 73.8887V73.707C182.355 73.0898 182.469 72.541 182.695 72.0605C182.922 71.5801 183.246 71.207 183.668 70.9414C184.094 70.6758 184.596 70.543 185.174 70.543C185.885 70.543 186.475 70.7559 186.943 71.1816C187.416 71.6074 187.668 72.1602 187.699 72.8398H186.674C186.643 72.4297 186.486 72.0938 186.205 71.832C185.928 71.5664 185.584 71.4336 185.174 71.4336C184.623 71.4336 184.195 71.6328 183.891 72.0312C183.59 72.4258 183.439 72.998 183.439 73.748V73.9531C183.439 74.6836 183.59 75.2461 183.891 75.6406C184.191 76.0352 184.621 76.2324 185.18 76.2324ZM191.549 77.1172C190.689 77.1172 189.99 76.8359 189.451 76.2734C188.912 75.707 188.643 74.9512 188.643 74.0059V73.8066C188.643 73.1777 188.762 72.6172 189 72.125C189.242 71.6289 189.578 71.2422 190.008 70.9648C190.441 70.6836 190.91 70.543 191.414 70.543C192.238 70.543 192.879 70.8145 193.336 71.3574C193.793 71.9004 194.021 72.6777 194.021 73.6895V74.1406H189.727C189.742 74.7656 189.924 75.2715 190.271 75.6582C190.623 76.041 191.068 76.2324 191.607 76.2324C191.99 76.2324 192.314 76.1543 192.58 75.998C192.846 75.8418 193.078 75.6348 193.277 75.377L193.939 75.8926C193.408 76.709 192.611 77.1172 191.549 77.1172ZM191.414 71.4336C190.977 71.4336 190.609 71.5938 190.312 71.9141C190.016 72.2305 189.832 72.6758 189.762 73.25H192.938V73.168C192.906 72.6172 192.758 72.1914 192.492 71.8906C192.227 71.5859 191.867 71.4336 191.414 71.4336Z" fill="#66788A"/>
</svg>
