<svg width="28" height="17" viewBox="0 0 28 17" fill="none" xmlns="http://www.w3.org/2000/svg">
<path fill-rule="evenodd" clip-rule="evenodd" d="M12.4288 9.59167C12.7107 9.35904 13.0649 9.2318 13.4305 9.2318C13.7922 9.2318 14.1429 9.35639 14.4235 9.58462L18.6335 13.0082C19.0074 13.3123 19.5156 13.3923 19.9648 13.218L21.9502 12.4474C22.1292 12.3779 22.3302 12.4036 22.4851 12.517C23.0788 12.9516 24.5751 14.0497 25.1289 14.482C26.4861 15.5416 27.486 16.25 27.486 16.25C27.486 16.25 27.4686 15.8601 27.486 15.4401C27.846 6.71799 21.2324 0.390172 13.8022 0.501445C6.38033 0.615684 0.381324 6.5662 0.501783 14.8354C0.513086 15.5319 0.619304 16.25 0.619304 16.25L2.50953 14.8354L4.80622 13.1806C5.12242 12.9528 5.54513 12.9393 5.87525 13.1464L6.79905 13.7261C7.00879 13.8577 7.27925 13.8402 7.47025 13.6826L12.4288 9.59167Z" fill="white"/>
</svg>
